<?xml version="1.0" encoding="UTF-8" standalone="no"?>
<!DOCTYPE svg PUBLIC "-//W3C//DTD SVG 1.1//EN"
 "http://www.w3.org/Graphics/SVG/1.1/DTD/svg11.dtd">
<!-- Generated by graphviz version 8.0.5 (20230430.1635)
 -->
<!-- Pages: 1 -->
<svg width="576pt" height="240pt"
 viewBox="0.00 0.00 576.00 240.13" xmlns="http://www.w3.org/2000/svg" xmlns:xlink="http://www.w3.org/1999/xlink">
<g id="graph0" class="graph" transform="scale(0.324126 0.324126) rotate(0) translate(4 736.87)">
<polygon fill="white" stroke="none" points="-4,4 -4,-736.87 1773.09,-736.87 1773.09,4 -4,4"/>
<!-- Initial -->
<g id="node1" class="node">
<title>Initial</title>
<ellipse fill="black" stroke="black" cx="1.8" cy="-638.06" rx="1.8" ry="1.8"/>
</g>
<!-- q0 -->
<g id="node3" class="node">
<title>q0</title>
<ellipse fill="none" stroke="black" cx="60.73" cy="-638.06" rx="20.13" ry="20.13"/>
<text text-anchor="middle" x="60.73" y="-632.64" font-family="Times New Roman,serif" font-size="14.00">q0</text>
</g>
<!-- Initial&#45;&gt;q0 -->
<g id="edge1" class="edge">
<title>Initial&#45;&gt;q0</title>
<path fill="none" stroke="black" d="M3.79,-638.06C7.21,-638.06 19.02,-638.06 30.91,-638.06"/>
<polygon fill="black" stroke="black" points="30.8,-641.04 39.3,-638.06 30.8,-635.09 30.8,-641.04"/>
</g>
<!-- Dead -->
<g id="node2" class="node">
<title>Dead</title>
<ellipse fill="none" stroke="black" cx="1673.46" cy="-405.06" rx="30.11" ry="30.11"/>
<text text-anchor="middle" x="1673.46" y="-399.64" font-family="Times New Roman,serif" font-size="14.00">Dead</text>
</g>
<!-- Dead&#45;&gt;Dead -->
<g id="edge30" class="edge">
<title>Dead&#45;&gt;Dead</title>
<path fill="none" stroke="black" d="M1666.73,-434.66C1666.66,-444.9 1668.9,-453.17 1673.46,-453.17 1676.53,-453.17 1678.55,-449.44 1679.52,-443.88"/>
<polygon fill="black" stroke="black" points="1682.54,-444.36 1680.2,-435.66 1676.61,-443.92 1682.54,-444.36"/>
<text text-anchor="middle" x="1673.46" y="-455.62" font-family="Times New Roman,serif" font-size="14.00"> + | &#45; | * | / | mod | rem | incf | decf </text>
</g>
<!-- Dead&#45;&gt;Dead -->
<g id="edge31" class="edge">
<title>Dead&#45;&gt;Dead</title>
<path fill="none" stroke="black" d="M1661.3,-432.91C1657.62,-452.19 1661.67,-471.17 1673.46,-471.17 1683.32,-471.17 1687.77,-457.91 1686.81,-442.3"/>
<polygon fill="black" stroke="black" points="1689.64,-441.97 1685.62,-433.91 1683.74,-442.72 1689.64,-441.97"/>
<text text-anchor="middle" x="1673.46" y="-473.62" font-family="Times New Roman,serif" font-size="14.00"> [0&#45;9] </text>
</g>
<!-- Dead&#45;&gt;Dead -->
<g id="edge32" class="edge">
<title>Dead&#45;&gt;Dead</title>
<path fill="none" stroke="black" d="M1657.84,-431.33C1648.36,-458.61 1653.57,-489.17 1673.46,-489.17 1691.18,-489.17 1697.25,-464.93 1691.67,-440.35"/>
<polygon fill="black" stroke="black" points="1694.28,-439.68 1689.08,-432.33 1688.56,-441.32 1694.28,-439.68"/>
<text text-anchor="middle" x="1673.46" y="-491.62" font-family="Times New Roman,serif" font-size="14.00"> Dot(.) </text>
</g>
<!-- Dead&#45;&gt;Dead -->
<g id="edge33" class="edge">
<title>Dead&#45;&gt;Dead</title>
<path fill="none" stroke="black" d="M1655.64,-429.93C1639.1,-464.58 1645.04,-507.17 1673.46,-507.17 1699.55,-507.17 1706.7,-471.28 1694.9,-438.59"/>
<polygon fill="black" stroke="black" points="1697.3,-437.63 1691.28,-430.93 1691.81,-439.92 1697.3,-437.63"/>
<text text-anchor="middle" x="1673.46" y="-509.62" font-family="Times New Roman,serif" font-size="14.00"> Space </text>
</g>
<!-- q0&#45;&gt;Dead -->
<g id="edge3" class="edge">
<title>q0&#45;&gt;Dead</title>
<path fill="none" stroke="black" d="M72.91,-654.56C79.47,-662.94 88.51,-672.5 98.85,-678.06 189.46,-726.83 224.33,-716.06 327.23,-716.06 327.23,-716.06 327.23,-716.06 1321.48,-716.06 1457.59,-716.06 1526.9,-772.05 1625.36,-678.06 1658.33,-646.58 1668.3,-512.01 1671.26,-444.3"/>
<polygon fill="black" stroke="black" points="1674.25,-444.82 1671.63,-436.21 1668.31,-444.58 1674.25,-444.82"/>
<text text-anchor="middle" x="558.11" y="-718.51" font-family="Times New Roman,serif" font-size="14.00"> [0&#45;9] </text>
</g>
<!-- q0&#45;&gt;Dead -->
<g id="edge4" class="edge">
<title>q0&#45;&gt;Dead</title>
<path fill="none" stroke="black" d="M80.98,-641.25C124.65,-648.2 234.6,-664.06 327.23,-664.06 327.23,-664.06 327.23,-664.06 1321.48,-664.06 1389.54,-664.06 1575.22,-672.08 1625.36,-626.06 1651.52,-602.05 1664.23,-501.49 1669.44,-444.65"/>
<polygon fill="black" stroke="black" points="1672.49,-444.97 1670.27,-436.25 1666.56,-444.45 1672.49,-444.97"/>
<text text-anchor="middle" x="558.11" y="-666.51" font-family="Times New Roman,serif" font-size="14.00"> Dot(.) </text>
</g>
<!-- q0&#45;&gt;Dead -->
<g id="edge5" class="edge">
<title>q0&#45;&gt;Dead</title>
<path fill="none" stroke="black" d="M80.98,-634.88C124.65,-627.93 234.6,-612.06 327.23,-612.06 327.23,-612.06 327.23,-612.06 1321.48,-612.06 1458.65,-612.06 1522.59,-648.92 1625.36,-558.06 1657.43,-529.71 1667.96,-480.09 1671.26,-445.06"/>
<polygon fill="black" stroke="black" points="1674.3,-445.31 1672.01,-436.6 1668.37,-444.83 1674.3,-445.31"/>
<text text-anchor="middle" x="558.11" y="-614.51" font-family="Times New Roman,serif" font-size="14.00"> Space </text>
</g>
<!-- q1 -->
<g id="node4" class="node">
<title>q1</title>
<ellipse fill="none" stroke="black" cx="328.23" cy="-528.06" rx="20.13" ry="20.13"/>
<text text-anchor="middle" x="328.23" y="-522.64" font-family="Times New Roman,serif" font-size="14.00">q1</text>
</g>
<!-- q0&#45;&gt;q1 -->
<g id="edge2" class="edge">
<title>q0&#45;&gt;q1</title>
<path fill="none" stroke="black" d="M69.59,-619.56C75.78,-607.19 85.59,-591.55 98.85,-582.31 160.7,-539.25 252.37,-530.09 298.5,-528.33"/>
<polygon fill="black" stroke="black" points="298.48,-531.28 306.89,-528.05 298.3,-525.33 298.48,-531.28"/>
<text text-anchor="middle" x="194.48" y="-584.51" font-family="Times New Roman,serif" font-size="14.00"> + | &#45; | * | / | mod | rem | incf | decf </text>
</g>
<!-- q1&#45;&gt;Dead -->
<g id="edge6" class="edge">
<title>q1&#45;&gt;Dead</title>
<path fill="none" stroke="black" d="M346.99,-536.2C353.01,-538.56 359.86,-540.84 366.35,-542.06 467.14,-561.11 494.54,-544.4 597.11,-545.06 947.88,-547.34 1617.44,-547.74 1625.36,-542.06 1656.06,-520.07 1666.95,-476.73 1670.71,-444.67"/>
<polygon fill="black" stroke="black" points="1673.74,-445.28 1671.63,-436.53 1667.82,-444.69 1673.74,-445.28"/>
<text text-anchor="middle" x="692.73" y="-548.51" font-family="Times New Roman,serif" font-size="14.00"> + | &#45; | * | / | mod | rem | incf | decf </text>
</g>
<!-- q1&#45;&gt;Dead -->
<g id="edge7" class="edge">
<title>q1&#45;&gt;Dead</title>
<path fill="none" stroke="black" d="M348.56,-528.06C371.63,-528.06 411.37,-528.06 445.48,-528.06 445.48,-528.06 445.48,-528.06 1321.48,-528.06 1389.22,-528.06 1569.56,-542.47 1625.36,-504.06 1645.66,-490.09 1657.48,-464.92 1664.2,-443.46"/>
<polygon fill="black" stroke="black" points="1667.28,-444.52 1666.78,-435.53 1661.56,-442.87 1667.28,-444.52"/>
<text text-anchor="middle" x="692.73" y="-530.51" font-family="Times New Roman,serif" font-size="14.00"> [0&#45;9] </text>
</g>
<!-- q1&#45;&gt;Dead -->
<g id="edge8" class="edge">
<title>q1&#45;&gt;Dead</title>
<path fill="none" stroke="black" d="M348.31,-524.68C392.12,-517.08 503.31,-498.63 597.11,-490.31 959.93,-458.14 1052.35,-478.95 1416.11,-460.06 1509.19,-455.23 1539.2,-481.63 1625.36,-446.06 1632.7,-443.03 1639.71,-438.37 1645.96,-433.27"/>
<polygon fill="black" stroke="black" points="1647.51,-434.99 1651.93,-427.14 1643.58,-430.52 1647.51,-434.99"/>
<text text-anchor="middle" x="692.73" y="-493.51" font-family="Times New Roman,serif" font-size="14.00"> Dot(.) </text>
</g>
<!-- q2 -->
<g id="node5" class="node">
<title>q2</title>
<ellipse fill="none" stroke="black" cx="446.48" cy="-401.06" rx="20.13" ry="20.13"/>
<text text-anchor="middle" x="446.48" y="-395.64" font-family="Times New Roman,serif" font-size="14.00">q2</text>
</g>
<!-- q1&#45;&gt;q2 -->
<g id="edge9" class="edge">
<title>q1&#45;&gt;q2</title>
<path fill="none" stroke="black" d="M336.57,-509.47C342.97,-494.8 353.27,-474.36 366.35,-459.31 381.84,-441.5 403.7,-425.93 420.52,-415.38"/>
<polygon fill="black" stroke="black" points="421.62,-417.58 427.32,-410.61 418.52,-412.5 421.62,-417.58"/>
<text text-anchor="middle" x="387.35" y="-462.51" font-family="Times New Roman,serif" font-size="14.00"> Space </text>
</g>
<!-- q2&#45;&gt;Dead -->
<g id="edge10" class="edge">
<title>q2&#45;&gt;Dead</title>
<path fill="none" stroke="black" d="M463.36,-412.19C483.96,-425.51 521.51,-446.06 557.11,-446.06 557.11,-446.06 557.11,-446.06 1321.48,-446.06 1457.07,-446.06 1492.18,-444.51 1625.36,-419.06 1628.7,-418.43 1632.14,-417.65 1635.57,-416.79"/>
<polygon fill="black" stroke="black" points="1636.11,-419.45 1643.54,-414.36 1634.56,-413.71 1636.11,-419.45"/>
<text text-anchor="middle" x="901.98" y="-448.51" font-family="Times New Roman,serif" font-size="14.00"> + | &#45; | * | / | mod | rem | incf | decf </text>
</g>
<!-- q2&#45;&gt;Dead -->
<g id="edge12" class="edge">
<title>q2&#45;&gt;Dead</title>
<path fill="none" stroke="black" d="M466.97,-401.13C605.58,-401.58 1442.14,-404.31 1633.5,-404.94"/>
<polygon fill="black" stroke="black" points="1633.37,-407.92 1641.88,-404.97 1633.39,-401.97 1633.37,-407.92"/>
<text text-anchor="middle" x="901.98" y="-405.51" font-family="Times New Roman,serif" font-size="14.00"> Dot(.) </text>
</g>
<!-- q2&#45;&gt;q2 -->
<g id="edge13" class="edge">
<title>q2&#45;&gt;q2</title>
<path fill="none" stroke="black" d="M436.67,-419.11C434.67,-429.51 437.94,-439.19 446.48,-439.19 452.36,-439.19 455.74,-434.61 456.63,-428.37"/>
<polygon fill="black" stroke="black" points="459.57,-428.5 456.29,-420.11 453.63,-428.71 459.57,-428.5"/>
<text text-anchor="middle" x="446.48" y="-441.64" font-family="Times New Roman,serif" font-size="14.00"> Space </text>
</g>
<!-- q3 -->
<g id="node6" class="node">
<title>q3</title>
<ellipse fill="none" stroke="black" cx="558.11" cy="-266.06" rx="20.13" ry="20.13"/>
<text text-anchor="middle" x="558.11" y="-260.64" font-family="Times New Roman,serif" font-size="14.00">q3</text>
</g>
<!-- q2&#45;&gt;q3 -->
<g id="edge11" class="edge">
<title>q2&#45;&gt;q3</title>
<path fill="none" stroke="black" d="M460.06,-385.58C479.39,-361.78 516.5,-316.08 538.81,-288.6"/>
<polygon fill="black" stroke="black" points="541.63,-290.84 544.68,-282.37 537.01,-287.09 541.63,-290.84"/>
<text text-anchor="middle" x="501.86" y="-356.51" font-family="Times New Roman,serif" font-size="14.00"> [0&#45;9] </text>
</g>
<!-- q3&#45;&gt;Dead -->
<g id="edge14" class="edge">
<title>q3&#45;&gt;Dead</title>
<path fill="none" stroke="black" d="M575.67,-276.08C582.17,-279.66 589.81,-283.45 597.11,-286.06 686.5,-318.05 712.33,-315.9 806.36,-329.06 1167.87,-379.68 1266.36,-324.91 1625.36,-391.06 1628.7,-391.68 1632.14,-392.44 1635.58,-393.29"/>
<polygon fill="black" stroke="black" points="1634.57,-396.37 1643.55,-395.7 1636.12,-390.63 1634.57,-396.37"/>
<text text-anchor="middle" x="1111.23" y="-357.51" font-family="Times New Roman,serif" font-size="14.00"> + | &#45; | * | / | mod | rem | incf | decf </text>
</g>
<!-- q3&#45;&gt;q3 -->
<g id="edge15" class="edge">
<title>q3&#45;&gt;q3</title>
<path fill="none" stroke="black" d="M548.14,-284.11C546.11,-294.51 549.43,-304.19 558.11,-304.19 564.07,-304.19 567.51,-299.61 568.41,-293.37"/>
<polygon fill="black" stroke="black" points="571.36,-293.49 568.07,-285.11 565.41,-293.71 571.36,-293.49"/>
<text text-anchor="middle" x="558.11" y="-306.64" font-family="Times New Roman,serif" font-size="14.00"> [0&#45;9] </text>
</g>
<!-- q4 -->
<g id="node7" class="node">
<title>q4</title>
<ellipse fill="none" stroke="black" cx="901.98" cy="-266.06" rx="20.13" ry="20.13"/>
<text text-anchor="middle" x="901.98" y="-260.64" font-family="Times New Roman,serif" font-size="14.00">q4</text>
</g>
<!-- q3&#45;&gt;q4 -->
<g id="edge17" class="edge">
<title>q3&#45;&gt;q4</title>
<path fill="none" stroke="black" d="M578.47,-266.06C635.69,-266.06 804.24,-266.06 872.15,-266.06"/>
<polygon fill="black" stroke="black" points="871.91,-269.04 880.41,-266.06 871.91,-263.09 871.91,-269.04"/>
<text text-anchor="middle" x="692.73" y="-268.51" font-family="Times New Roman,serif" font-size="14.00"> Space </text>
</g>
<!-- q6 -->
<g id="node9" class="node">
<title>q6</title>
<ellipse fill="none" stroke="black" cx="1111.23" cy="-124.06" rx="20.13" ry="20.13"/>
<text text-anchor="middle" x="1111.23" y="-118.64" font-family="Times New Roman,serif" font-size="14.00">q6</text>
</g>
<!-- q3&#45;&gt;q6 -->
<g id="edge16" class="edge">
<title>q3&#45;&gt;q6</title>
<path fill="none" stroke="black" d="M576.1,-256.09C582.52,-252.62 590,-248.95 597.11,-246.31 768.55,-182.72 819.87,-195.07 997.61,-152.06 1026.57,-145.06 1059.65,-136.8 1082.43,-131.08"/>
<polygon fill="black" stroke="black" points="1083,-133.75 1090.52,-128.79 1081.55,-127.98 1083,-133.75"/>
<text text-anchor="middle" x="692.73" y="-249.51" font-family="Times New Roman,serif" font-size="14.00"> Dot(.) </text>
</g>
<!-- q4&#45;&gt;Dead -->
<g id="edge18" class="edge">
<title>q4&#45;&gt;Dead</title>
<path fill="none" stroke="black" d="M922.06,-269.62C944.42,-273.71 982.62,-280.45 1015.61,-285.06 1150.63,-303.97 1503.98,-290.97 1625.36,-353.06 1634.66,-357.82 1643.01,-365.23 1650.01,-372.97"/>
<polygon fill="black" stroke="black" points="1648.29,-374.54 1656.05,-379.11 1652.83,-370.7 1648.29,-374.54"/>
<text text-anchor="middle" x="1320.48" y="-312.51" font-family="Times New Roman,serif" font-size="14.00"> + | &#45; | * | / | mod | rem | incf | decf </text>
</g>
<!-- q4&#45;&gt;Dead -->
<g id="edge20" class="edge">
<title>q4&#45;&gt;Dead</title>
<path fill="none" stroke="black" d="M922.37,-265.96C1031.55,-265.55 1566.95,-265.69 1625.36,-308.06 1644.63,-322.05 1656.38,-346.08 1663.32,-366.72"/>
<polygon fill="black" stroke="black" points="1660.73,-367.39 1666.1,-374.62 1666.41,-365.62 1660.73,-367.39"/>
<text text-anchor="middle" x="1320.48" y="-279.51" font-family="Times New Roman,serif" font-size="14.00"> Dot(.) </text>
</g>
<!-- q4&#45;&gt;q4 -->
<g id="edge21" class="edge">
<title>q4&#45;&gt;q4</title>
<path fill="none" stroke="black" d="M882.58,-272.26C850.76,-285.59 857.23,-304.19 901.98,-304.19 942.19,-304.19 951.49,-289.18 929.9,-276.46"/>
<polygon fill="black" stroke="black" points="931.32,-273.35 922.39,-272.26 928.69,-278.69 931.32,-273.35"/>
<text text-anchor="middle" x="901.98" y="-306.64" font-family="Times New Roman,serif" font-size="14.00"> Space </text>
</g>
<!-- q5 -->
<g id="node8" class="node">
<title>q5</title>
<ellipse fill="none" stroke="black" cx="1320.48" cy="-143.06" rx="20.13" ry="20.13"/>
<ellipse fill="none" stroke="black" cx="1320.48" cy="-143.06" rx="24.13" ry="24.13"/>
<text text-anchor="middle" x="1320.48" y="-137.64" font-family="Times New Roman,serif" font-size="14.00">q5</text>
</g>
<!-- q4&#45;&gt;q5 -->
<g id="edge19" class="edge">
<title>q4&#45;&gt;q5</title>
<path fill="none" stroke="black" d="M922.05,-261.93C970.28,-251.3 1100.81,-221.43 1206.86,-187.06 1235.11,-177.91 1266.54,-165.43 1289.01,-156.1"/>
<polygon fill="black" stroke="black" points="1290.06,-158.47 1296.75,-152.44 1287.76,-152.98 1290.06,-158.47"/>
<text text-anchor="middle" x="1111.23" y="-242.51" font-family="Times New Roman,serif" font-size="14.00"> [0&#45;9] </text>
</g>
<!-- q5&#45;&gt;Dead -->
<g id="edge22" class="edge">
<title>q5&#45;&gt;Dead</title>
<path fill="none" stroke="black" d="M1343.89,-150C1413.27,-171.52 1620.22,-236.01 1625.36,-241.31 1657.56,-274.58 1667.99,-328.38 1671.24,-365.17"/>
<polygon fill="black" stroke="black" points="1668.34,-365.34 1671.95,-373.6 1674.28,-364.9 1668.34,-365.34"/>
<text text-anchor="middle" x="1529.73" y="-244.51" font-family="Times New Roman,serif" font-size="14.00"> + | &#45; | * | / | mod | rem | incf | decf </text>
</g>
<!-- q5&#45;&gt;Dead -->
<g id="edge24" class="edge">
<title>q5&#45;&gt;Dead</title>
<path fill="none" stroke="black" d="M1343.95,-136.03C1399.4,-120.21 1544.15,-88.46 1625.36,-159.31 1655.71,-185.8 1666.81,-302.91 1670.62,-365.42"/>
<polygon fill="black" stroke="black" points="1667.69,-365.28 1671.15,-373.6 1673.63,-364.94 1667.69,-365.28"/>
<text text-anchor="middle" x="1529.73" y="-162.51" font-family="Times New Roman,serif" font-size="14.00"> Dot(.) </text>
</g>
<!-- q5&#45;&gt;q5 -->
<g id="edge23" class="edge">
<title>q5&#45;&gt;q5</title>
<path fill="none" stroke="black" d="M1302.98,-160.37C1297.28,-172.81 1303.11,-185.19 1320.48,-185.19 1333.51,-185.19 1340.05,-178.22 1340.1,-169.5"/>
<polygon fill="black" stroke="black" points="1342.8,-168.98 1337.99,-161.37 1337.01,-170.33 1342.8,-168.98"/>
<text text-anchor="middle" x="1320.48" y="-187.64" font-family="Times New Roman,serif" font-size="14.00"> [0&#45;9] </text>
</g>
<!-- q5&#45;&gt;q5 -->
<g id="edge25" class="edge">
<title>q5&#45;&gt;q5</title>
<path fill="none" stroke="black" d="M1298.96,-154.28C1269.58,-175.18 1276.75,-203.19 1320.48,-203.19 1360.11,-203.19 1369.72,-180.19 1349.3,-160.32"/>
<polygon fill="black" stroke="black" points="1351.45,-157.41 1343.01,-154.28 1347.66,-161.99 1351.45,-157.41"/>
<text text-anchor="middle" x="1320.48" y="-205.64" font-family="Times New Roman,serif" font-size="14.00"> Space </text>
</g>
<!-- q6&#45;&gt;Dead -->
<g id="edge26" class="edge">
<title>q6&#45;&gt;Dead</title>
<path fill="none" stroke="black" d="M1130.67,-117.62C1152.74,-110.27 1190.96,-98.72 1224.86,-94.31 1313.2,-82.84 1560.05,-51.47 1625.36,-112.06 1661.59,-145.69 1669.97,-293.52 1671.9,-365.46"/>
<polygon fill="black" stroke="black" points="1668.94,-365.25 1672.12,-373.68 1674.89,-365.11 1668.94,-365.25"/>
<text text-anchor="middle" x="1320.48" y="-97.51" font-family="Times New Roman,serif" font-size="14.00"> + | &#45; | * | / | mod | rem | incf | decf </text>
</g>
<!-- q6&#45;&gt;Dead -->
<g id="edge28" class="edge">
<title>q6&#45;&gt;Dead</title>
<path fill="none" stroke="black" d="M1127.4,-111.4C1147.95,-95.16 1186.5,-67.83 1224.86,-57.31 1396.64,-10.23 1495.07,49.39 1625.36,-72.06 1667.27,-111.14 1672.6,-286.04 1672.81,-365.52"/>
<polygon fill="black" stroke="black" points="1669.84,-365.23 1672.81,-373.73 1675.79,-365.23 1669.84,-365.23"/>
<text text-anchor="middle" x="1320.48" y="-60.51" font-family="Times New Roman,serif" font-size="14.00"> Dot(.) </text>
</g>
<!-- q6&#45;&gt;q3 -->
<g id="edge27" class="edge">
<title>q6&#45;&gt;q3</title>
<path fill="none" stroke="black" d="M1091.51,-119.66C1019.21,-103.82 754.46,-56.66 597.11,-174.31 577.35,-189.09 567.81,-216.01 563.23,-236.88"/>
<polygon fill="black" stroke="black" points="560.17,-236.07 561.46,-244.98 566.01,-237.21 560.17,-236.07"/>
<text text-anchor="middle" x="692.73" y="-177.51" font-family="Times New Roman,serif" font-size="14.00"> [0&#45;9] </text>
</g>
<!-- q6&#45;&gt;q6 -->
<g id="edge29" class="edge">
<title>q6&#45;&gt;q6</title>
<path fill="none" stroke="black" d="M1091.83,-130.26C1060.01,-143.59 1066.48,-162.19 1111.23,-162.19 1151.44,-162.19 1160.74,-147.18 1139.15,-134.46"/>
<polygon fill="black" stroke="black" points="1140.57,-131.35 1131.64,-130.26 1137.94,-136.69 1140.57,-131.35"/>
<text text-anchor="middle" x="1111.23" y="-164.64" font-family="Times New Roman,serif" font-size="14.00"> Space </text>
</g>
</g>
</svg>
