<?xml version="1.0" encoding="UTF-8" standalone="no"?>
<!DOCTYPE svg PUBLIC "-//W3C//DTD SVG 1.1//EN"
 "http://www.w3.org/Graphics/SVG/1.1/DTD/svg11.dtd">
<!-- Generated by graphviz version 8.0.5 (20230430.1635)
 -->
<!-- Pages: 1 -->
<svg width="576pt" height="235pt"
 viewBox="0.00 0.00 576.00 235.39" xmlns="http://www.w3.org/2000/svg" xmlns:xlink="http://www.w3.org/1999/xlink">
<g id="graph0" class="graph" transform="scale(0.669907 0.669907) rotate(0) translate(4 347.37)">
<polygon fill="white" stroke="none" points="-4,4 -4,-347.37 855.82,-347.37 855.82,4 -4,4"/>
<!-- Initial -->
<g id="node1" class="node">
<title>Initial</title>
<ellipse fill="black" stroke="black" cx="1.8" cy="-171.62" rx="1.8" ry="1.8"/>
</g>
<!-- q0 -->
<g id="node3" class="node">
<title>q0</title>
<ellipse fill="none" stroke="black" cx="60.73" cy="-171.62" rx="20.13" ry="20.13"/>
<text text-anchor="middle" x="60.73" y="-166.2" font-family="Times New Roman,serif" font-size="14.00">q0</text>
</g>
<!-- Initial&#45;&gt;q0 -->
<g id="edge1" class="edge">
<title>Initial&#45;&gt;q0</title>
<path fill="none" stroke="black" d="M3.79,-171.62C7.21,-171.62 19.02,-171.62 30.91,-171.62"/>
<polygon fill="black" stroke="black" points="30.8,-174.6 39.3,-171.62 30.8,-168.65 30.8,-174.6"/>
</g>
<!-- Dead -->
<g id="node2" class="node">
<title>Dead</title>
<ellipse fill="none" stroke="black" cx="256.46" cy="-132.62" rx="30.11" ry="30.11"/>
<text text-anchor="middle" x="256.46" y="-127.2" font-family="Times New Roman,serif" font-size="14.00">Dead</text>
</g>
<!-- Dead&#45;&gt;Dead -->
<g id="edge23" class="edge">
<title>Dead&#45;&gt;Dead</title>
<path fill="none" stroke="black" d="M251.64,-162.69C251.64,-172.71 253.24,-180.73 256.46,-180.73 258.57,-180.73 259.98,-177.28 260.71,-172.07"/>
<polygon fill="black" stroke="black" points="263.73,-172.35 261.28,-163.69 257.79,-171.99 263.73,-172.35"/>
<text text-anchor="middle" x="256.46" y="-183.18" font-family="Times New Roman,serif" font-size="14.00"> \ </text>
</g>
<!-- Dead&#45;&gt;Dead -->
<g id="edge24" class="edge">
<title>Dead&#45;&gt;Dead</title>
<path fill="none" stroke="black" d="M247.58,-161.85C245.26,-180.64 248.22,-198.73 256.46,-198.73 263.34,-198.73 266.54,-186.09 266.05,-170.96"/>
<polygon fill="black" stroke="black" points="268.97,-171.09 265.34,-162.85 263.04,-171.55 268.97,-171.09"/>
<text text-anchor="middle" x="256.46" y="-201.18" font-family="Times New Roman,serif" font-size="14.00"> Anything except \ </text>
</g>
<!-- Dead&#45;&gt;Dead -->
<g id="edge25" class="edge">
<title>Dead&#45;&gt;Dead</title>
<path fill="none" stroke="black" d="M244.86,-160.62C238.66,-187.45 242.52,-216.73 256.46,-216.73 268.82,-216.73 273.26,-193.7 269.78,-169.79"/>
<polygon fill="black" stroke="black" points="272.55,-169.43 268.05,-161.62 266.7,-170.53 272.55,-169.43"/>
<text text-anchor="middle" x="256.46" y="-219.18" font-family="Times New Roman,serif" font-size="14.00"> Anything except # </text>
</g>
<!-- Dead&#45;&gt;Dead -->
<g id="edge26" class="edge">
<title>Dead&#45;&gt;Dead</title>
<path fill="none" stroke="black" d="M242.94,-159.81C232.06,-194.01 236.57,-234.73 256.46,-234.73 274.64,-234.73 279.96,-200.71 272.44,-168.74"/>
<polygon fill="black" stroke="black" points="275.1,-168.21 269.98,-160.81 269.37,-169.79 275.1,-168.21"/>
<text text-anchor="middle" x="256.46" y="-237.18" font-family="Times New Roman,serif" font-size="14.00"> Anything </text>
</g>
<!-- q1 -->
<g id="node4" class="node">
<title>q1</title>
<ellipse fill="none" stroke="black" cx="452.19" cy="-227.62" rx="20.13" ry="20.13"/>
<text text-anchor="middle" x="452.19" y="-222.2" font-family="Times New Roman,serif" font-size="14.00">q1</text>
</g>
<!-- Dead&#45;&gt;q1 -->
<g id="edge22" class="edge">
<title>Dead&#45;&gt;q1</title>
<path fill="none" stroke="black" d="M257.83,-162.97C260.06,-196.54 269.39,-249.23 304.56,-274.62 344.02,-303.11 370.27,-295.84 414.06,-274.62 423.57,-270.02 431.37,-261.67 437.33,-253.28"/>
<polygon fill="black" stroke="black" points="440.35,-255.08 442.48,-246.33 435.36,-251.85 440.35,-255.08"/>
<text text-anchor="middle" x="359.31" y="-295.07" font-family="Times New Roman,serif" font-size="14.00"> # </text>
</g>
<!-- q0&#45;&gt;Dead -->
<g id="edge3" class="edge">
<title>q0&#45;&gt;Dead</title>
<path fill="none" stroke="black" d="M78.57,-181.18C84.75,-184.19 91.93,-187.11 98.85,-188.62 146.4,-198.99 164.23,-209.16 208.35,-188.62 218.88,-183.72 227.9,-175.18 235.14,-166.22"/>
<polygon fill="black" stroke="black" points="238.08,-168.26 240.79,-159.67 233.32,-164.69 238.08,-168.26"/>
<text text-anchor="middle" x="153.6" y="-203.07" font-family="Times New Roman,serif" font-size="14.00"> \ </text>
</g>
<!-- q0&#45;&gt;Dead -->
<g id="edge4" class="edge">
<title>q0&#45;&gt;Dead</title>
<path fill="none" stroke="black" d="M80.94,-169.96C109.19,-167.24 163.43,-160.98 208.35,-149.62 212.05,-148.69 215.86,-147.57 219.65,-146.37"/>
<polygon fill="black" stroke="black" points="220.24,-148.97 227.34,-143.44 218.34,-143.33 220.24,-148.97"/>
<text text-anchor="middle" x="153.6" y="-171.07" font-family="Times New Roman,serif" font-size="14.00"> Anything except \ </text>
</g>
<!-- q0&#45;&gt;Dead -->
<g id="edge5" class="edge">
<title>q0&#45;&gt;Dead</title>
<path fill="none" stroke="black" d="M71.79,-154.56C78.24,-145.39 87.53,-134.96 98.85,-129.87 136.56,-112.94 184.7,-117.09 217.59,-123.25"/>
<polygon fill="black" stroke="black" points="216.94,-126.35 225.86,-125.11 218.11,-120.52 216.94,-126.35"/>
<text text-anchor="middle" x="153.6" y="-133.07" font-family="Times New Roman,serif" font-size="14.00"> Anything except # </text>
</g>
<!-- q0&#45;&gt;Dead -->
<g id="edge6" class="edge">
<title>q0&#45;&gt;Dead</title>
<path fill="none" stroke="black" d="M65.75,-151.95C70.45,-134.6 80.11,-110.35 98.85,-98.87 140.36,-73.46 162.02,-83.99 208.35,-98.87 214.4,-100.82 220.33,-103.85 225.84,-107.33"/>
<polygon fill="black" stroke="black" points="223.87,-110.28 232.56,-112.66 227.25,-105.38 223.87,-110.28"/>
<text text-anchor="middle" x="153.6" y="-102.07" font-family="Times New Roman,serif" font-size="14.00"> Anything </text>
</g>
<!-- q0&#45;&gt;q1 -->
<g id="edge2" class="edge">
<title>q0&#45;&gt;q1</title>
<path fill="none" stroke="black" d="M72.22,-188.16C79.07,-198.21 88.62,-210.94 98.85,-220.62 148.5,-267.61 161.8,-284.15 226.35,-306.62 305.18,-334.06 344.22,-358.33 414.06,-312.62 432.82,-300.35 442.16,-276.28 446.77,-256.88"/>
<polygon fill="black" stroke="black" points="449.84,-257.74 448.68,-248.81 444.02,-256.52 449.84,-257.74"/>
<text text-anchor="middle" x="256.46" y="-330.07" font-family="Times New Roman,serif" font-size="14.00"> # </text>
</g>
<!-- q1&#45;&gt;Dead -->
<g id="edge7" class="edge">
<title>q1&#45;&gt;Dead</title>
<path fill="none" stroke="black" d="M433.69,-235.85C404.34,-248.31 344.53,-267.89 304.56,-241.62 281.12,-226.21 269.29,-196.37 263.35,-171.81"/>
<polygon fill="black" stroke="black" points="266.08,-171.36 261.35,-163.69 260.26,-172.63 266.08,-171.36"/>
<text text-anchor="middle" x="359.31" y="-257.07" font-family="Times New Roman,serif" font-size="14.00"> # </text>
</g>
<!-- q1&#45;&gt;Dead -->
<g id="edge9" class="edge">
<title>q1&#45;&gt;Dead</title>
<path fill="none" stroke="black" d="M431.84,-224.53C392.62,-218.22 307.23,-204.35 304.56,-202.62 291.75,-194.34 281.56,-181.21 273.99,-168.54"/>
<polygon fill="black" stroke="black" points="276.14,-167.3 269.38,-161.34 270.95,-170.21 276.14,-167.3"/>
<text text-anchor="middle" x="359.31" y="-224.07" font-family="Times New Roman,serif" font-size="14.00"> Anything except \ </text>
</g>
<!-- q1&#45;&gt;Dead -->
<g id="edge10" class="edge">
<title>q1&#45;&gt;Dead</title>
<path fill="none" stroke="black" d="M441.31,-210.56C434.81,-200.9 425.41,-189.46 414.06,-182.87 371.33,-158.06 350.49,-181.86 304.56,-163.62 299.19,-161.49 293.79,-158.69 288.66,-155.64"/>
<polygon fill="black" stroke="black" points="290.64,-152.74 281.86,-150.72 287.46,-157.77 290.64,-152.74"/>
<text text-anchor="middle" x="359.31" y="-186.07" font-family="Times New Roman,serif" font-size="14.00"> Anything except # </text>
</g>
<!-- q1&#45;&gt;Dead -->
<g id="edge11" class="edge">
<title>q1&#45;&gt;Dead</title>
<path fill="none" stroke="black" d="M448.3,-207.67C444.3,-187.93 435.01,-158.6 414.06,-143.87 395.74,-130.99 336.41,-130.01 296.27,-130.96"/>
<polygon fill="black" stroke="black" points="296.43,-128.01 288.02,-131.22 296.6,-133.96 296.43,-128.01"/>
<text text-anchor="middle" x="359.31" y="-147.07" font-family="Times New Roman,serif" font-size="14.00"> Anything </text>
</g>
<!-- q2 -->
<g id="node5" class="node">
<title>q2</title>
<ellipse fill="none" stroke="black" cx="637.94" cy="-227.62" rx="20.13" ry="20.13"/>
<text text-anchor="middle" x="637.94" y="-222.2" font-family="Times New Roman,serif" font-size="14.00">q2</text>
</g>
<!-- q1&#45;&gt;q2 -->
<g id="edge8" class="edge">
<title>q1&#45;&gt;q2</title>
<path fill="none" stroke="black" d="M472.51,-227.62C504.82,-227.62 570,-227.62 607.88,-227.62"/>
<polygon fill="black" stroke="black" points="607.83,-230.6 616.33,-227.62 607.83,-224.65 607.83,-230.6"/>
<text text-anchor="middle" x="545.07" y="-230.07" font-family="Times New Roman,serif" font-size="14.00"> \ </text>
</g>
<!-- q3 -->
<g id="node6" class="node">
<title>q3</title>
<ellipse fill="none" stroke="black" cx="827.7" cy="-132.62" rx="20.13" ry="20.13"/>
<ellipse fill="none" stroke="black" cx="827.7" cy="-132.62" rx="24.13" ry="24.13"/>
<text text-anchor="middle" x="827.7" y="-127.2" font-family="Times New Roman,serif" font-size="14.00">q3</text>
</g>
<!-- q2&#45;&gt;q3 -->
<g id="edge12" class="edge">
<title>q2&#45;&gt;q3</title>
<path fill="none" stroke="black" d="M645.79,-246.39C651.65,-259.41 661.48,-275.79 676.07,-283.62 718.95,-306.64 746.9,-313.17 785.57,-283.62 804.12,-269.45 816.29,-206.27 822.3,-166.26"/>
<polygon fill="black" stroke="black" points="825.38,-166.72 823.66,-157.88 819.49,-165.86 825.38,-166.72"/>
<text text-anchor="middle" x="730.82" y="-305.07" font-family="Times New Roman,serif" font-size="14.00"> # </text>
</g>
<!-- q2&#45;&gt;q3 -->
<g id="edge13" class="edge">
<title>q2&#45;&gt;q3</title>
<path fill="none" stroke="black" d="M656.12,-236.42C685.51,-250.1 746.06,-272.2 785.57,-244.62 810.68,-227.09 820.5,-192.46 824.32,-166.32"/>
<polygon fill="black" stroke="black" points="827.37,-166.92 825.47,-158.12 821.47,-166.18 827.37,-166.92"/>
<text text-anchor="middle" x="730.82" y="-260.07" font-family="Times New Roman,serif" font-size="14.00"> \ </text>
</g>
<!-- q2&#45;&gt;q3 -->
<g id="edge14" class="edge">
<title>q2&#45;&gt;q3</title>
<path fill="none" stroke="black" d="M658.19,-225.68C695.57,-221.78 775.24,-212.74 785.57,-205.62 799.89,-195.76 809.8,-179.19 816.3,-164.33"/>
<polygon fill="black" stroke="black" points="819.31,-165.83 819.74,-156.84 813.79,-163.6 819.31,-165.83"/>
<text text-anchor="middle" x="730.82" y="-226.07" font-family="Times New Roman,serif" font-size="14.00"> Anything except \ </text>
</g>
<!-- q2&#45;&gt;q3 -->
<g id="edge15" class="edge">
<title>q2&#45;&gt;q3</title>
<path fill="none" stroke="black" d="M649.68,-210.87C656.24,-202.03 665.4,-191.83 676.07,-185.87 719.22,-161.79 740.7,-187.33 785.57,-166.62 791.7,-163.79 797.67,-159.82 803.08,-155.58"/>
<polygon fill="black" stroke="black" points="804.46,-157.46 809.07,-149.72 800.64,-152.91 804.46,-157.46"/>
<text text-anchor="middle" x="730.82" y="-189.07" font-family="Times New Roman,serif" font-size="14.00"> Anything except # </text>
</g>
<!-- q2&#45;&gt;q3 -->
<g id="edge16" class="edge">
<title>q2&#45;&gt;q3</title>
<path fill="none" stroke="black" d="M642.28,-207.74C646.58,-188.78 656.06,-161.07 676.07,-146.87 694.39,-133.88 755.44,-131.88 793.97,-131.99"/>
<polygon fill="black" stroke="black" points="793.72,-134.97 802.24,-132.06 793.76,-129.02 793.72,-134.97"/>
<text text-anchor="middle" x="730.82" y="-150.07" font-family="Times New Roman,serif" font-size="14.00"> Anything </text>
</g>
<!-- q3&#45;&gt;Dead -->
<g id="edge17" class="edge">
<title>q3&#45;&gt;Dead</title>
<path fill="none" stroke="black" d="M803.21,-131.32C797.45,-131.04 791.29,-130.78 785.57,-130.62 620.52,-125.94 579.18,-128.29 414.06,-127.62 365.4,-127.43 353.16,-125.05 304.56,-127.62 301.78,-127.77 298.91,-127.97 296.02,-128.19"/>
<polygon fill="black" stroke="black" points="296.02,-125.3 287.82,-129.02 296.55,-131.22 296.02,-125.3"/>
<text text-anchor="middle" x="545.07" y="-131.07" font-family="Times New Roman,serif" font-size="14.00"> # </text>
</g>
<!-- q3&#45;&gt;Dead -->
<g id="edge18" class="edge">
<title>q3&#45;&gt;Dead</title>
<path fill="none" stroke="black" d="M803.71,-127.72C797.82,-126.58 791.47,-125.46 785.57,-124.62 703.5,-112.97 682.62,-111.6 599.82,-107.87 468.56,-101.97 434.59,-103.74 304.56,-122.62 301.59,-123.05 298.51,-123.56 295.43,-124.12"/>
<polygon fill="black" stroke="black" points="295.03,-121.36 287.25,-125.89 296.16,-127.2 295.03,-121.36"/>
<text text-anchor="middle" x="545.07" y="-111.07" font-family="Times New Roman,serif" font-size="14.00"> \ </text>
</g>
<!-- q3&#45;&gt;Dead -->
<g id="edge19" class="edge">
<title>q3&#45;&gt;Dead</title>
<path fill="none" stroke="black" d="M807.39,-119.19C800.75,-115.17 793.09,-111.16 785.57,-108.62 706.75,-82.06 682.84,-90.94 599.82,-85.87 468.54,-77.86 429.68,-65.1 304.56,-105.62 299.74,-107.18 294.87,-109.28 290.18,-111.62"/>
<polygon fill="black" stroke="black" points="289.06,-109.38 282.99,-116.02 291.88,-114.62 289.06,-109.38"/>
<text text-anchor="middle" x="545.07" y="-89.07" font-family="Times New Roman,serif" font-size="14.00"> Anything except \ </text>
</g>
<!-- q3&#45;&gt;Dead -->
<g id="edge20" class="edge">
<title>q3&#45;&gt;Dead</title>
<path fill="none" stroke="black" d="M814.34,-112.21C807.21,-102.24 797.32,-91.04 785.57,-84.62 712.43,-44.66 682.97,-64.61 599.82,-58.87 468.67,-49.83 420.96,-15.53 304.56,-76.62 294.37,-81.97 285.49,-90.55 278.27,-99.41"/>
<polygon fill="black" stroke="black" points="275.39,-97.28 272.61,-105.84 280.12,-100.88 275.39,-97.28"/>
<text text-anchor="middle" x="545.07" y="-62.07" font-family="Times New Roman,serif" font-size="14.00"> Anything except # </text>
</g>
<!-- q3&#45;&gt;Dead -->
<g id="edge21" class="edge">
<title>q3&#45;&gt;Dead</title>
<path fill="none" stroke="black" d="M820.44,-109.28C814.46,-91.67 803.62,-68.42 785.57,-55.62 717.43,-7.29 683.11,-33.28 599.82,-26.87 468.88,-16.8 414.07,33.86 304.56,-38.62 285.42,-51.29 273.72,-74.19 266.77,-94.22"/>
<polygon fill="black" stroke="black" points="263.66,-93.17 263.9,-102.17 269.33,-94.98 263.66,-93.17"/>
<text text-anchor="middle" x="545.07" y="-30.07" font-family="Times New Roman,serif" font-size="14.00"> Anything </text>
</g>
</g>
</svg>
