<?xml version="1.0" encoding="UTF-8" standalone="no"?>
<!DOCTYPE svg PUBLIC "-//W3C//DTD SVG 1.1//EN"
 "http://www.w3.org/Graphics/SVG/1.1/DTD/svg11.dtd">
<!-- Generated by graphviz version 8.0.5 (20230430.1635)
 -->
<!-- Pages: 1 -->
<svg width="276pt" height="124pt"
 viewBox="0.00 0.00 276.10 123.75" xmlns="http://www.w3.org/2000/svg" xmlns:xlink="http://www.w3.org/1999/xlink">
<g id="graph0" class="graph" transform="scale(1 1) rotate(0) translate(4 119.75)">
<polygon fill="white" stroke="none" points="-4,4 -4,-119.75 272.1,-119.75 272.1,4 -4,4"/>
<!-- Initial -->
<g id="node1" class="node">
<title>Initial</title>
<ellipse fill="black" stroke="black" cx="1.8" cy="-24.13" rx="1.8" ry="1.8"/>
</g>
<!-- q0 -->
<g id="node2" class="node">
<title>q0</title>
<ellipse fill="none" stroke="black" cx="60.73" cy="-24.13" rx="20.13" ry="20.13"/>
<text text-anchor="middle" x="60.73" y="-18.7" font-family="Times New Roman,serif" font-size="14.00">q0</text>
</g>
<!-- Initial&#45;&gt;q0 -->
<g id="edge1" class="edge">
<title>Initial&#45;&gt;q0</title>
<path fill="none" stroke="black" d="M3.79,-24.13C7.21,-24.13 19.02,-24.13 30.91,-24.13"/>
<polygon fill="black" stroke="black" points="30.8,-27.1 39.3,-24.13 30.8,-21.15 30.8,-27.1"/>
</g>
<!-- q0&#45;&gt;q0 -->
<g id="edge2" class="edge">
<title>q0&#45;&gt;q0</title>
<path fill="none" stroke="black" d="M53.74,-43.35C52.66,-53.29 54.99,-62.25 60.73,-62.25 64.58,-62.25 66.89,-58.21 67.67,-52.54"/>
<polygon fill="black" stroke="black" points="70.65,-52.86 67.71,-44.35 64.7,-52.84 70.65,-52.86"/>
<text text-anchor="middle" x="60.73" y="-64.7" font-family="Times New Roman,serif" font-size="14.00"> ; </text>
</g>
<!-- q1 -->
<g id="node3" class="node">
<title>q1</title>
<ellipse fill="none" stroke="black" cx="225.73" cy="-24.13" rx="20.13" ry="20.13"/>
<ellipse fill="none" stroke="black" cx="225.73" cy="-24.13" rx="24.13" ry="24.13"/>
<text text-anchor="middle" x="225.73" y="-18.7" font-family="Times New Roman,serif" font-size="14.00">q1</text>
</g>
<!-- q0&#45;&gt;q1 -->
<g id="edge3" class="edge">
<title>q0&#45;&gt;q1</title>
<path fill="none" stroke="black" d="M81.06,-24.13C108.39,-24.13 158.67,-24.13 191.9,-24.13"/>
<polygon fill="black" stroke="black" points="191.71,-27.1 200.21,-24.13 191.71,-21.15 191.71,-27.1"/>
<text text-anchor="middle" x="141.23" y="-26.58" font-family="Times New Roman,serif" font-size="14.00"> Anything Else </text>
</g>
<!-- q1&#45;&gt;q1 -->
<g id="edge4" class="edge">
<title>q1&#45;&gt;q1</title>
<path fill="none" stroke="black" d="M217.93,-47.09C217.19,-57.37 219.79,-66.25 225.73,-66.25 229.72,-66.25 232.2,-62.24 233.18,-56.49"/>
<polygon fill="black" stroke="black" points="236.18,-56.7 233.53,-48.09 230.24,-56.48 236.18,-56.7"/>
<text text-anchor="middle" x="225.73" y="-68.7" font-family="Times New Roman,serif" font-size="14.00"> ; </text>
</g>
<!-- q1&#45;&gt;q1 -->
<g id="edge5" class="edge">
<title>q1&#45;&gt;q1</title>
<path fill="none" stroke="black" d="M212.81,-44.77C206.32,-63.77 210.63,-84.25 225.73,-84.25 238.47,-84.25 243.53,-69.67 240.9,-53.7"/>
<polygon fill="black" stroke="black" points="243.61,-53.28 238.65,-45.77 237.84,-54.74 243.61,-53.28"/>
<text text-anchor="middle" x="225.73" y="-86.7" font-family="Times New Roman,serif" font-size="14.00"> Anything Else </text>
</g>
</g>
</svg>
