<?xml version="1.0" encoding="UTF-8" standalone="no"?>
<!DOCTYPE svg PUBLIC "-//W3C//DTD SVG 1.1//EN"
 "http://www.w3.org/Graphics/SVG/1.1/DTD/svg11.dtd">
<!-- Generated by graphviz version 8.0.5 (20230430.1635)
 -->
<!-- Pages: 1 -->
<svg width="576pt" height="191pt"
 viewBox="0.00 0.00 576.00 190.83" xmlns="http://www.w3.org/2000/svg" xmlns:xlink="http://www.w3.org/1999/xlink">
<g id="graph0" class="graph" transform="scale(0.60602 0.60602) rotate(0) translate(4 310.88)">
<polygon fill="white" stroke="none" points="-4,4 -4,-310.88 946.46,-310.88 946.46,4 -4,4"/>
<!-- Initial -->
<g id="node1" class="node">
<title>Initial</title>
<ellipse fill="black" stroke="black" cx="1.8" cy="-108.03" rx="1.8" ry="1.8"/>
</g>
<!-- q0 -->
<g id="node3" class="node">
<title>q0</title>
<ellipse fill="none" stroke="black" cx="60.73" cy="-108.03" rx="20.13" ry="20.13"/>
<text text-anchor="middle" x="60.73" y="-102.6" font-family="Times New Roman,serif" font-size="14.00">q0</text>
</g>
<!-- Initial&#45;&gt;q0 -->
<g id="edge1" class="edge">
<title>Initial&#45;&gt;q0</title>
<path fill="none" stroke="black" d="M3.79,-108.03C7.21,-108.03 19.02,-108.03 30.91,-108.03"/>
<polygon fill="black" stroke="black" points="30.8,-111 39.3,-108.03 30.8,-105.05 30.8,-111"/>
</g>
<!-- Dead -->
<g id="node2" class="node">
<title>Dead</title>
<ellipse fill="none" stroke="black" cx="825.46" cy="-108.03" rx="30.11" ry="30.11"/>
<text text-anchor="middle" x="825.46" y="-102.6" font-family="Times New Roman,serif" font-size="14.00">Dead</text>
</g>
<!-- Dead&#45;&gt;Dead -->
<g id="edge17" class="edge">
<title>Dead&#45;&gt;Dead</title>
<path fill="none" stroke="black" d="M819.27,-137.62C819.21,-147.86 821.27,-156.13 825.46,-156.13 828.28,-156.13 830.14,-152.4 831.03,-146.84"/>
<polygon fill="black" stroke="black" points="834.05,-147.3 831.65,-138.62 828.11,-146.9 834.05,-147.3"/>
<text text-anchor="middle" x="825.46" y="-158.58" font-family="Times New Roman,serif" font-size="14.00"> [a&#45;z] </text>
</g>
<!-- Dead&#45;&gt;Dead -->
<g id="edge18" class="edge">
<title>Dead&#45;&gt;Dead</title>
<path fill="none" stroke="black" d="M814.23,-136.22C810.95,-155.38 814.69,-174.13 825.46,-174.13 834.47,-174.13 838.56,-161.03 837.74,-145.54"/>
<polygon fill="black" stroke="black" points="840.6,-145.34 836.7,-137.22 834.69,-146 840.6,-145.34"/>
<text text-anchor="middle" x="825.46" y="-176.58" font-family="Times New Roman,serif" font-size="14.00"> [A&#45;Z] </text>
</g>
<!-- Dead&#45;&gt;Dead -->
<g id="edge19" class="edge">
<title>Dead&#45;&gt;Dead</title>
<path fill="none" stroke="black" d="M810.97,-134.73C802.44,-161.89 807.28,-192.13 825.46,-192.13 841.66,-192.13 847.26,-168.15 842.27,-143.71"/>
<polygon fill="black" stroke="black" points="844.96,-143.21 839.96,-135.73 839.2,-144.7 844.96,-143.21"/>
<text text-anchor="middle" x="825.46" y="-194.58" font-family="Times New Roman,serif" font-size="14.00"> $ | ! | % | &amp; | * | / | : | &lt; | = | &gt; | ? | _ | ^ | ~ </text>
</g>
<!-- Dead&#45;&gt;Dead -->
<g id="edge20" class="edge">
<title>Dead&#45;&gt;Dead</title>
<path fill="none" stroke="black" d="M808.75,-133.67C793.97,-168.17 799.54,-210.13 825.46,-210.13 849.26,-210.13 855.91,-174.77 845.4,-142.28"/>
<polygon fill="black" stroke="black" points="847.94,-141.58 842.17,-134.67 842.37,-143.67 847.94,-141.58"/>
<text text-anchor="middle" x="825.46" y="-212.58" font-family="Times New Roman,serif" font-size="14.00"> [0&#45;9] </text>
</g>
<!-- Dead&#45;&gt;Dead -->
<g id="edge21" class="edge">
<title>Dead&#45;&gt;Dead</title>
<path fill="none" stroke="black" d="M807.37,-132.49C785.49,-174 791.52,-228.13 825.46,-228.13 857.15,-228.13 864.51,-180.95 847.55,-140.91"/>
<polygon fill="black" stroke="black" points="849.89,-139.9 843.56,-133.49 844.51,-142.45 849.89,-139.9"/>
<text text-anchor="middle" x="825.46" y="-230.58" font-family="Times New Roman,serif" font-size="14.00"> Space </text>
</g>
<!-- q1 -->
<g id="node4" class="node">
<title>q1</title>
<ellipse fill="none" stroke="black" cx="374.98" cy="-108.03" rx="20.13" ry="20.13"/>
<ellipse fill="none" stroke="black" cx="374.98" cy="-108.03" rx="24.13" ry="24.13"/>
<text text-anchor="middle" x="374.98" y="-102.6" font-family="Times New Roman,serif" font-size="14.00">q1</text>
</g>
<!-- q0&#45;&gt;q1 -->
<g id="edge2" class="edge">
<title>q0&#45;&gt;q1</title>
<path fill="none" stroke="black" d="M68.57,-126.79C74.43,-139.82 84.26,-156.19 98.85,-164.03 190.48,-213.22 240.07,-211.01 332.85,-164.03 343.98,-158.4 352.82,-148.18 359.42,-138"/>
<polygon fill="black" stroke="black" points="362.43,-139.76 364.22,-130.94 357.32,-136.72 362.43,-139.76"/>
<text text-anchor="middle" x="215.85" y="-202.48" font-family="Times New Roman,serif" font-size="14.00"> [a&#45;z] </text>
</g>
<!-- q0&#45;&gt;q1 -->
<g id="edge3" class="edge">
<title>q0&#45;&gt;q1</title>
<path fill="none" stroke="black" d="M78.57,-117.59C84.75,-120.59 91.93,-123.52 98.85,-125.03 200.46,-147.19 230.84,-145.28 332.85,-125.03 336.69,-124.27 340.62,-123.14 344.45,-121.83"/>
<polygon fill="black" stroke="black" points="345.26,-124.32 352.13,-118.49 343.13,-118.76 345.26,-124.32"/>
<text text-anchor="middle" x="215.85" y="-142.48" font-family="Times New Roman,serif" font-size="14.00"> [A&#45;Z] </text>
</g>
<!-- q0&#45;&gt;q1 -->
<g id="edge4" class="edge">
<title>q0&#45;&gt;q1</title>
<path fill="none" stroke="black" d="M80.98,-106.33C86.73,-105.9 93.04,-105.49 98.85,-105.28 202.78,-101.43 228.91,-101.81 332.85,-105.28 335.53,-105.37 338.31,-105.49 341.1,-105.63"/>
<polygon fill="black" stroke="black" points="340.84,-108.66 349.5,-106.19 341.19,-102.72 340.84,-108.66"/>
<text text-anchor="middle" x="215.85" y="-107.48" font-family="Times New Roman,serif" font-size="14.00"> $ | ! | % | &amp; | * | / | : | &lt; | = | &gt; | ? | _ | ^ | ~ </text>
</g>
<!-- q0&#45;&gt;q1 -->
<g id="edge5" class="edge">
<title>q0&#45;&gt;q1</title>
<path fill="none" stroke="black" d="M76.14,-94.97C82.6,-89.97 90.62,-84.85 98.85,-82.28 198.11,-51.23 232.89,-53.57 332.85,-82.28 337.81,-83.7 342.75,-85.92 347.4,-88.47"/>
<polygon fill="black" stroke="black" points="345.58,-91.45 354.39,-93.31 348.66,-86.36 345.58,-91.45"/>
<text text-anchor="middle" x="215.85" y="-84.48" font-family="Times New Roman,serif" font-size="14.00"> [0&#45;9] </text>
</g>
<!-- q0&#45;&gt;q1 -->
<g id="edge6" class="edge">
<title>q0&#45;&gt;q1</title>
<path fill="none" stroke="black" d="M66.36,-88.44C71.38,-72.1 81.14,-49.84 98.85,-39.28 188.17,14 242.39,12.02 332.85,-39.28 347.08,-47.35 356.91,-62.51 363.39,-76.54"/>
<polygon fill="black" stroke="black" points="360.94,-77.4 367,-84.07 366.42,-75.08 360.94,-77.4"/>
<text text-anchor="middle" x="215.85" y="-41.48" font-family="Times New Roman,serif" font-size="14.00"> Space </text>
</g>
<!-- q1&#45;&gt;q1 -->
<g id="edge7" class="edge">
<title>q1&#45;&gt;q1</title>
<path fill="none" stroke="black" d="M372.04,-132.27C371.87,-141.99 372.85,-150.15 374.98,-150.15 376.37,-150.15 377.28,-146.64 377.68,-141.48"/>
<polygon fill="black" stroke="black" points="380.68,-141.84 377.92,-133.27 374.73,-141.69 380.68,-141.84"/>
<text text-anchor="middle" x="374.98" y="-152.6" font-family="Times New Roman,serif" font-size="14.00"> [a&#45;z] </text>
</g>
<!-- q1&#45;&gt;q1 -->
<g id="edge8" class="edge">
<title>q1&#45;&gt;q1</title>
<path fill="none" stroke="black" d="M369.79,-131.79C367.92,-149.85 369.65,-168.15 374.98,-168.15 379.39,-168.15 381.34,-155.6 380.81,-141.03"/>
<polygon fill="black" stroke="black" points="383.73,-141.06 380.17,-132.79 377.79,-141.48 383.73,-141.06"/>
<text text-anchor="middle" x="374.98" y="-170.6" font-family="Times New Roman,serif" font-size="14.00"> [A&#45;Z] </text>
</g>
<!-- q1&#45;&gt;q1 -->
<g id="edge9" class="edge">
<title>q1&#45;&gt;q1</title>
<path fill="none" stroke="black" d="M368.25,-131.62C363.91,-157.16 366.15,-186.15 374.98,-186.15 382.74,-186.15 385.41,-163.76 382.99,-140.99"/>
<polygon fill="black" stroke="black" points="385.81,-140.64 381.71,-132.62 379.92,-141.45 385.81,-140.64"/>
<text text-anchor="middle" x="374.98" y="-188.6" font-family="Times New Roman,serif" font-size="14.00"> $ | ! | % | &amp; | * | / | : | &lt; | = | &gt; | ? | _ | ^ | ~ </text>
</g>
<!-- q1&#45;&gt;q1 -->
<g id="edge10" class="edge">
<title>q1&#45;&gt;q1</title>
<path fill="none" stroke="black" d="M367.21,-131.2C359.87,-163.86 362.46,-204.15 374.98,-204.15 386.37,-204.15 389.54,-170.77 384.49,-140.15"/>
<polygon fill="black" stroke="black" points="387.29,-139.97 382.75,-132.2 381.45,-141.11 387.29,-139.97"/>
<text text-anchor="middle" x="374.98" y="-206.6" font-family="Times New Roman,serif" font-size="14.00"> [0&#45;9] </text>
</g>
<!-- q2 -->
<g id="node5" class="node">
<title>q2</title>
<ellipse fill="none" stroke="black" cx="501.23" cy="-108.03" rx="20.13" ry="20.13"/>
<ellipse fill="none" stroke="black" cx="501.23" cy="-108.03" rx="24.13" ry="24.13"/>
<text text-anchor="middle" x="501.23" y="-102.6" font-family="Times New Roman,serif" font-size="14.00">q2</text>
</g>
<!-- q1&#45;&gt;q2 -->
<g id="edge11" class="edge">
<title>q1&#45;&gt;q2</title>
<path fill="none" stroke="black" d="M399.35,-108.03C418.61,-108.03 446.15,-108.03 467.59,-108.03"/>
<polygon fill="black" stroke="black" points="467.46,-111 475.96,-108.03 467.46,-105.05 467.46,-111"/>
<text text-anchor="middle" x="438.1" y="-110.48" font-family="Times New Roman,serif" font-size="14.00"> Space </text>
</g>
<!-- q2&#45;&gt;Dead -->
<g id="edge12" class="edge">
<title>q2&#45;&gt;Dead</title>
<path fill="none" stroke="black" d="M517.1,-126.32C524.19,-133.61 533.31,-141.18 543.36,-145.03 640.46,-182.28 679.07,-179.01 777.36,-145.03 784.13,-142.69 790.67,-138.92 796.61,-134.68"/>
<polygon fill="black" stroke="black" points="797.9,-136.67 802.79,-129.11 794.25,-131.97 797.9,-136.67"/>
<text text-anchor="middle" x="660.36" y="-173.48" font-family="Times New Roman,serif" font-size="14.00"> [a&#45;z] </text>
</g>
<!-- q2&#45;&gt;Dead -->
<g id="edge13" class="edge">
<title>q2&#45;&gt;Dead</title>
<path fill="none" stroke="black" d="M525.66,-108.03C580.6,-108.03 718.16,-108.03 785.75,-108.03"/>
<polygon fill="black" stroke="black" points="785.69,-111 794.19,-108.03 785.69,-105.05 785.69,-111"/>
<text text-anchor="middle" x="660.36" y="-110.48" font-family="Times New Roman,serif" font-size="14.00"> [A&#45;Z] </text>
</g>
<!-- q2&#45;&gt;Dead -->
<g id="edge14" class="edge">
<title>q2&#45;&gt;Dead</title>
<path fill="none" stroke="black" d="M522.49,-96.09C528.94,-92.9 536.25,-89.9 543.36,-88.28 644.76,-65.19 675.4,-67.77 777.36,-88.28 781.22,-89.06 785.16,-90.16 789.04,-91.45"/>
<polygon fill="black" stroke="black" points="787.89,-94.57 796.9,-94.74 789.96,-88.99 787.89,-94.57"/>
<text text-anchor="middle" x="660.36" y="-90.48" font-family="Times New Roman,serif" font-size="14.00"> $ | ! | % | &amp; | * | / | : | &lt; | = | &gt; | ? | _ | ^ | ~ </text>
</g>
<!-- q2&#45;&gt;Dead -->
<g id="edge15" class="edge">
<title>q2&#45;&gt;Dead</title>
<path fill="none" stroke="black" d="M511.76,-86.12C518.56,-73.44 529.05,-58.58 543.36,-51.28 635.99,-4.01 683.22,-7.07 777.36,-51.28 788.15,-56.35 797.32,-65.23 804.63,-74.49"/>
<polygon fill="black" stroke="black" points="802.65,-75.84 810.08,-80.93 807.45,-72.32 802.65,-75.84"/>
<text text-anchor="middle" x="660.36" y="-53.48" font-family="Times New Roman,serif" font-size="14.00"> [0&#45;9] </text>
</g>
<!-- q2&#45;&gt;q2 -->
<g id="edge16" class="edge">
<title>q2&#45;&gt;q2</title>
<path fill="none" stroke="black" d="M489.74,-129.7C488.15,-140.51 491.98,-150.15 501.23,-150.15 507.73,-150.15 511.56,-145.39 512.7,-138.8"/>
<polygon fill="black" stroke="black" points="515.68,-139.21 512.72,-130.7 509.73,-139.2 515.68,-139.21"/>
<text text-anchor="middle" x="501.23" y="-152.6" font-family="Times New Roman,serif" font-size="14.00"> Space </text>
</g>
</g>
</svg>
