<?xml version="1.0" encoding="UTF-8" standalone="no"?>
<!DOCTYPE svg PUBLIC "-//W3C//DTD SVG 1.1//EN"
 "http://www.w3.org/Graphics/SVG/1.1/DTD/svg11.dtd">
<!-- Generated by graphviz version 8.0.5 (20230430.1635)
 -->
<!-- Pages: 1 -->
<svg width="463pt" height="310pt"
 viewBox="0.00 0.00 462.57 309.75" xmlns="http://www.w3.org/2000/svg" xmlns:xlink="http://www.w3.org/1999/xlink">
<g id="graph0" class="graph" transform="scale(1 1) rotate(0) translate(4 305.75)">
<polygon fill="white" stroke="none" points="-4,4 -4,-305.75 458.57,-305.75 458.57,4 -4,4"/>
<!-- Initial -->
<g id="node1" class="node">
<title>Initial</title>
<ellipse fill="black" stroke="black" cx="1.8" cy="-197.13" rx="1.8" ry="1.8"/>
</g>
<!-- q0 -->
<g id="node3" class="node">
<title>q0</title>
<ellipse fill="none" stroke="black" cx="60.73" cy="-197.13" rx="20.13" ry="20.13"/>
<text text-anchor="middle" x="60.73" y="-191.7" font-family="Times New Roman,serif" font-size="14.00">q0</text>
</g>
<!-- Initial&#45;&gt;q0 -->
<g id="edge1" class="edge">
<title>Initial&#45;&gt;q0</title>
<path fill="none" stroke="black" d="M3.79,-197.13C7.21,-197.13 19.02,-197.13 30.91,-197.13"/>
<polygon fill="black" stroke="black" points="30.8,-200.1 39.3,-197.13 30.8,-194.15 30.8,-200.1"/>
</g>
<!-- Dead -->
<g id="node2" class="node">
<title>Dead</title>
<ellipse fill="none" stroke="black" cx="424.46" cy="-152.13" rx="30.11" ry="30.11"/>
<text text-anchor="middle" x="424.46" y="-146.7" font-family="Times New Roman,serif" font-size="14.00">Dead</text>
</g>
<!-- Dead&#45;&gt;Dead -->
<g id="edge14" class="edge">
<title>Dead&#45;&gt;Dead</title>
<path fill="none" stroke="black" d="M420.17,-182.19C420.17,-192.21 421.6,-200.23 424.46,-200.23 426.34,-200.23 427.61,-196.78 428.25,-191.57"/>
<polygon fill="black" stroke="black" points="431.27,-191.84 428.76,-183.19 425.33,-191.52 431.27,-191.84"/>
<text text-anchor="middle" x="424.46" y="-202.68" font-family="Times New Roman,serif" font-size="14.00"> Space </text>
</g>
<!-- Dead&#45;&gt;Dead -->
<g id="edge15" class="edge">
<title>Dead&#45;&gt;Dead</title>
<path fill="none" stroke="black" d="M416.55,-181.35C414.49,-200.15 417.12,-218.23 424.46,-218.23 430.6,-218.23 433.45,-205.59 433.01,-190.47"/>
<polygon fill="black" stroke="black" points="435.93,-190.62 432.37,-182.35 430,-191.04 435.93,-190.62"/>
<text text-anchor="middle" x="424.46" y="-220.68" font-family="Times New Roman,serif" font-size="14.00"> [0&#45;9] </text>
</g>
<!-- Dead&#45;&gt;Dead -->
<g id="edge16" class="edge">
<title>Dead&#45;&gt;Dead</title>
<path fill="none" stroke="black" d="M414.04,-180.56C408.64,-207.27 412.11,-236.23 424.46,-236.23 435.41,-236.23 439.39,-213.46 436.38,-189.68"/>
<polygon fill="black" stroke="black" points="439.19,-189.47 434.88,-181.56 433.32,-190.43 439.19,-189.47"/>
<text text-anchor="middle" x="424.46" y="-238.68" font-family="Times New Roman,serif" font-size="14.00"> Dot(.) </text>
</g>
<!-- q0&#45;&gt;q0 -->
<g id="edge2" class="edge">
<title>q0&#45;&gt;q0</title>
<path fill="none" stroke="black" d="M53.74,-216.35C52.66,-226.29 54.99,-235.25 60.73,-235.25 64.58,-235.25 66.89,-231.21 67.67,-225.54"/>
<polygon fill="black" stroke="black" points="70.65,-225.86 67.71,-217.35 64.7,-225.84 70.65,-225.86"/>
<text text-anchor="middle" x="60.73" y="-237.7" font-family="Times New Roman,serif" font-size="14.00"> Space </text>
</g>
<!-- q1 -->
<g id="node4" class="node">
<title>q1</title>
<ellipse fill="none" stroke="black" cx="292.98" cy="-210.13" rx="20.13" ry="20.13"/>
<ellipse fill="none" stroke="black" cx="292.98" cy="-210.13" rx="24.13" ry="24.13"/>
<text text-anchor="middle" x="292.98" y="-204.7" font-family="Times New Roman,serif" font-size="14.00">q1</text>
</g>
<!-- q0&#45;&gt;q1 -->
<g id="edge3" class="edge">
<title>q0&#45;&gt;q1</title>
<path fill="none" stroke="black" d="M80.78,-201.76C100.12,-206.21 130.98,-212.62 158.1,-215.13 192.55,-218.32 232.16,-216.11 259.31,-213.7"/>
<polygon fill="black" stroke="black" points="259.53,-216.58 267.71,-212.82 258.97,-210.65 259.53,-216.58"/>
<text text-anchor="middle" x="178.23" y="-218.58" font-family="Times New Roman,serif" font-size="14.00"> [0&#45;9] </text>
</g>
<!-- q3 -->
<g id="node6" class="node">
<title>q3</title>
<ellipse fill="none" stroke="black" cx="178.23" cy="-152.13" rx="20.13" ry="20.13"/>
<text text-anchor="middle" x="178.23" y="-146.7" font-family="Times New Roman,serif" font-size="14.00">q3</text>
</g>
<!-- q0&#45;&gt;q3 -->
<g id="edge4" class="edge">
<title>q0&#45;&gt;q3</title>
<path fill="none" stroke="black" d="M80.03,-190C98.95,-182.62 128.7,-171.03 150.31,-162.61"/>
<polygon fill="black" stroke="black" points="151.17,-165.08 158.01,-159.22 149.01,-159.54 151.17,-165.08"/>
<text text-anchor="middle" x="119.48" y="-184.58" font-family="Times New Roman,serif" font-size="14.00"> Dot(.) </text>
</g>
<!-- q1&#45;&gt;Dead -->
<g id="edge7" class="edge">
<title>q1&#45;&gt;Dead</title>
<path fill="none" stroke="black" d="M315.36,-200.55C335.11,-191.7 364.81,-178.4 388.09,-167.97"/>
<polygon fill="black" stroke="black" points="389.12,-170.32 395.66,-164.13 386.69,-164.89 389.12,-170.32"/>
<text text-anchor="middle" x="355.73" y="-193.58" font-family="Times New Roman,serif" font-size="14.00"> Dot(.) </text>
</g>
<!-- q1&#45;&gt;q1 -->
<g id="edge5" class="edge">
<title>q1&#45;&gt;q1</title>
<path fill="none" stroke="black" d="M287.46,-233.94C287.08,-243.85 288.92,-252.25 292.98,-252.25 295.64,-252.25 297.35,-248.64 298.1,-243.35"/>
<polygon fill="black" stroke="black" points="301.11,-243.56 298.5,-234.94 295.17,-243.31 301.11,-243.56"/>
<text text-anchor="middle" x="292.98" y="-254.7" font-family="Times New Roman,serif" font-size="14.00"> Space </text>
</g>
<!-- q1&#45;&gt;q1 -->
<g id="edge6" class="edge">
<title>q1&#45;&gt;q1</title>
<path fill="none" stroke="black" d="M283.48,-232.64C279.55,-251.09 282.72,-270.25 292.98,-270.25 301.56,-270.25 305.18,-256.86 303.84,-241.69"/>
<polygon fill="black" stroke="black" points="306.69,-241.6 302.48,-233.64 300.8,-242.49 306.69,-241.6"/>
<text text-anchor="middle" x="292.98" y="-272.7" font-family="Times New Roman,serif" font-size="14.00"> [0&#45;9] </text>
</g>
<!-- q2 -->
<g id="node5" class="node">
<title>q2</title>
<ellipse fill="none" stroke="black" cx="292.98" cy="-24.13" rx="20.13" ry="20.13"/>
<ellipse fill="none" stroke="black" cx="292.98" cy="-24.13" rx="24.13" ry="24.13"/>
<text text-anchor="middle" x="292.98" y="-18.7" font-family="Times New Roman,serif" font-size="14.00">q2</text>
</g>
<!-- q2&#45;&gt;Dead -->
<g id="edge10" class="edge">
<title>q2&#45;&gt;Dead</title>
<path fill="none" stroke="black" d="M310.91,-40.86C332.43,-62.13 369.88,-99.15 395.63,-124.61"/>
<polygon fill="black" stroke="black" points="393.09,-126.28 401.23,-130.14 397.28,-122.05 393.09,-126.28"/>
<text text-anchor="middle" x="355.73" y="-105.58" font-family="Times New Roman,serif" font-size="14.00"> Dot(.) </text>
</g>
<!-- q2&#45;&gt;q2 -->
<g id="edge8" class="edge">
<title>q2&#45;&gt;q2</title>
<path fill="none" stroke="black" d="M287.46,-47.94C287.08,-57.85 288.92,-66.25 292.98,-66.25 295.64,-66.25 297.35,-62.64 298.1,-57.35"/>
<polygon fill="black" stroke="black" points="301.11,-57.56 298.5,-48.94 295.17,-57.31 301.11,-57.56"/>
<text text-anchor="middle" x="292.98" y="-68.7" font-family="Times New Roman,serif" font-size="14.00"> Space </text>
</g>
<!-- q2&#45;&gt;q2 -->
<g id="edge9" class="edge">
<title>q2&#45;&gt;q2</title>
<path fill="none" stroke="black" d="M283.48,-46.64C279.55,-65.09 282.72,-84.25 292.98,-84.25 301.56,-84.25 305.18,-70.86 303.84,-55.69"/>
<polygon fill="black" stroke="black" points="306.69,-55.6 302.48,-47.64 300.8,-56.49 306.69,-55.6"/>
<text text-anchor="middle" x="292.98" y="-86.7" font-family="Times New Roman,serif" font-size="14.00"> [0&#45;9] </text>
</g>
<!-- q3&#45;&gt;Dead -->
<g id="edge13" class="edge">
<title>q3&#45;&gt;Dead</title>
<path fill="none" stroke="black" d="M198.8,-152.13C239.08,-152.13 331.9,-152.13 384.76,-152.13"/>
<polygon fill="black" stroke="black" points="384.64,-155.1 393.14,-152.13 384.64,-149.15 384.64,-155.1"/>
<text text-anchor="middle" x="292.98" y="-154.58" font-family="Times New Roman,serif" font-size="14.00"> Dot(.) </text>
</g>
<!-- q3&#45;&gt;q1 -->
<g id="edge12" class="edge">
<title>q3&#45;&gt;q1</title>
<path fill="none" stroke="black" d="M196.35,-160.94C214,-170.02 241.85,-184.34 262.95,-195.19"/>
<polygon fill="black" stroke="black" points="261.32,-198.21 270.24,-199.46 264.04,-192.92 261.32,-198.21"/>
<text text-anchor="middle" x="233.6" y="-189.58" font-family="Times New Roman,serif" font-size="14.00"> [0&#45;9] </text>
</g>
<!-- q3&#45;&gt;q3 -->
<g id="edge11" class="edge">
<title>q3&#45;&gt;q3</title>
<path fill="none" stroke="black" d="M168.42,-170.17C166.41,-180.57 169.68,-190.25 178.23,-190.25 184.1,-190.25 187.48,-185.68 188.37,-179.44"/>
<polygon fill="black" stroke="black" points="191.32,-179.56 188.04,-171.17 185.37,-179.77 191.32,-179.56"/>
<text text-anchor="middle" x="178.23" y="-192.7" font-family="Times New Roman,serif" font-size="14.00"> Space </text>
</g>
</g>
</svg>
