<?xml version="1.0" encoding="UTF-8" standalone="no"?>
<!DOCTYPE svg PUBLIC "-//W3C//DTD SVG 1.1//EN"
 "http://www.w3.org/Graphics/SVG/1.1/DTD/svg11.dtd">
<!-- Generated by graphviz version 8.0.5 (20230430.1635)
 -->
<!-- Pages: 1 -->
<svg width="576pt" height="356pt"
 viewBox="0.00 0.00 576.00 356.38" xmlns="http://www.w3.org/2000/svg" xmlns:xlink="http://www.w3.org/1999/xlink">
<g id="graph0" class="graph" transform="scale(0.501649 0.501649) rotate(0) translate(4 706.42)">
<polygon fill="white" stroke="none" points="-4,4 -4,-706.42 1144.21,-706.42 1144.21,4 -4,4"/>
<!-- Initial -->
<g id="node1" class="node">
<title>Initial</title>
<ellipse fill="black" stroke="black" cx="1.8" cy="-608.67" rx="1.8" ry="1.8"/>
</g>
<!-- q0 -->
<g id="node3" class="node">
<title>q0</title>
<ellipse fill="none" stroke="black" cx="60.73" cy="-608.67" rx="20.13" ry="20.13"/>
<text text-anchor="middle" x="60.73" y="-603.24" font-family="Times New Roman,serif" font-size="14.00">q0</text>
</g>
<!-- Initial&#45;&gt;q0 -->
<g id="edge1" class="edge">
<title>Initial&#45;&gt;q0</title>
<path fill="none" stroke="black" d="M3.79,-608.67C7.21,-608.67 19.02,-608.67 30.91,-608.67"/>
<polygon fill="black" stroke="black" points="30.8,-611.64 39.3,-608.67 30.8,-605.69 30.8,-611.64"/>
</g>
<!-- Dead -->
<g id="node2" class="node">
<title>Dead</title>
<ellipse fill="none" stroke="black" cx="1092.96" cy="-375.67" rx="30.11" ry="30.11"/>
<text text-anchor="middle" x="1092.96" y="-370.24" font-family="Times New Roman,serif" font-size="14.00">Dead</text>
</g>
<!-- Dead&#45;&gt;Dead -->
<g id="edge30" class="edge">
<title>Dead&#45;&gt;Dead</title>
<path fill="none" stroke="black" d="M1088.49,-405.73C1088.49,-415.76 1089.98,-423.77 1092.96,-423.77 1094.92,-423.77 1096.23,-420.32 1096.9,-415.11"/>
<polygon fill="black" stroke="black" points="1099.93,-415.39 1097.43,-406.73 1093.98,-415.05 1099.93,-415.39"/>
<text text-anchor="middle" x="1092.96" y="-426.22" font-family="Times New Roman,serif" font-size="14.00"> &lt;= | &gt;= | = | &lt;&gt; </text>
</g>
<!-- Dead&#45;&gt;Dead -->
<g id="edge31" class="edge">
<title>Dead&#45;&gt;Dead</title>
<path fill="none" stroke="black" d="M1084.73,-404.89C1082.58,-423.69 1085.33,-441.77 1092.96,-441.77 1099.35,-441.77 1102.31,-429.13 1101.86,-414.01"/>
<polygon fill="black" stroke="black" points="1104.78,-414.16 1101.2,-405.89 1098.84,-414.59 1104.78,-414.16"/>
<text text-anchor="middle" x="1092.96" y="-444.22" font-family="Times New Roman,serif" font-size="14.00"> [0&#45;9] </text>
</g>
<!-- Dead&#45;&gt;Dead -->
<g id="edge32" class="edge">
<title>Dead&#45;&gt;Dead</title>
<path fill="none" stroke="black" d="M1082.12,-404.1C1076.5,-430.81 1080.11,-459.77 1092.96,-459.77 1104.36,-459.77 1108.49,-437 1105.36,-413.22"/>
<polygon fill="black" stroke="black" points="1108.17,-412.98 1103.81,-405.1 1102.3,-413.98 1108.17,-412.98"/>
<text text-anchor="middle" x="1092.96" y="-462.22" font-family="Times New Roman,serif" font-size="14.00"> Dot(.) </text>
</g>
<!-- Dead&#45;&gt;Dead -->
<g id="edge33" class="edge">
<title>Dead&#45;&gt;Dead</title>
<path fill="none" stroke="black" d="M1080.28,-403.37C1070.39,-437.46 1074.62,-477.77 1092.96,-477.77 1109.73,-477.77 1114.7,-444.09 1107.88,-412.27"/>
<polygon fill="black" stroke="black" points="1110.6,-411.89 1105.65,-404.37 1104.83,-413.34 1110.6,-411.89"/>
<text text-anchor="middle" x="1092.96" y="-480.22" font-family="Times New Roman,serif" font-size="14.00"> Space </text>
</g>
<!-- q0&#45;&gt;Dead -->
<g id="edge3" class="edge">
<title>q0&#45;&gt;Dead</title>
<path fill="none" stroke="black" d="M73.18,-624.69C79.82,-632.93 88.85,-642.51 98.85,-648.67 150.7,-680.59 169.59,-686.67 230.48,-686.67 230.48,-686.67 230.48,-686.67 886.11,-686.67 958.66,-686.67 995.23,-701.58 1044.86,-648.67 1075.9,-615.56 1086.78,-482.91 1090.35,-415.47"/>
<polygon fill="black" stroke="black" points="1093.37,-415.65 1090.82,-407.01 1087.42,-415.35 1093.37,-415.65"/>
<text text-anchor="middle" x="461.36" y="-689.12" font-family="Times New Roman,serif" font-size="14.00"> [0&#45;9] </text>
</g>
<!-- q0&#45;&gt;Dead -->
<g id="edge4" class="edge">
<title>q0&#45;&gt;Dead</title>
<path fill="none" stroke="black" d="M80.56,-613.5C111.59,-621.02 175.49,-634.67 230.48,-634.67 230.48,-634.67 230.48,-634.67 886.11,-634.67 958.66,-634.67 994.2,-648.6 1044.86,-596.67 1069.59,-571.31 1082.86,-471.79 1088.54,-415.33"/>
<polygon fill="black" stroke="black" points="1091.59,-415.74 1089.45,-406.99 1085.67,-415.16 1091.59,-415.74"/>
<text text-anchor="middle" x="461.36" y="-637.12" font-family="Times New Roman,serif" font-size="14.00"> Dot(.) </text>
</g>
<!-- q0&#45;&gt;Dead -->
<g id="edge5" class="edge">
<title>q0&#45;&gt;Dead</title>
<path fill="none" stroke="black" d="M80.56,-603.84C111.59,-596.32 175.49,-582.67 230.48,-582.67 230.48,-582.67 230.48,-582.67 886.11,-582.67 960.78,-582.67 992.94,-581.33 1044.86,-527.67 1074.18,-497.36 1085.28,-449.15 1089.47,-415.17"/>
<polygon fill="black" stroke="black" points="1092.51,-415.76 1090.47,-406.98 1086.59,-415.11 1092.51,-415.76"/>
<text text-anchor="middle" x="461.36" y="-585.12" font-family="Times New Roman,serif" font-size="14.00"> Space </text>
</g>
<!-- q1 -->
<g id="node4" class="node">
<title>q1</title>
<ellipse fill="none" stroke="black" cx="231.48" cy="-498.67" rx="20.13" ry="20.13"/>
<text text-anchor="middle" x="231.48" y="-493.24" font-family="Times New Roman,serif" font-size="14.00">q1</text>
</g>
<!-- q0&#45;&gt;q1 -->
<g id="edge2" class="edge">
<title>q0&#45;&gt;q1</title>
<path fill="none" stroke="black" d="M70.21,-590.54C76.63,-578.5 86.45,-563.1 98.85,-552.92 129.75,-527.56 174.14,-512.59 202.64,-505.01"/>
<polygon fill="black" stroke="black" points="203.15,-507.69 210.66,-502.71 201.69,-501.92 203.15,-507.69"/>
<text text-anchor="middle" x="146.1" y="-555.12" font-family="Times New Roman,serif" font-size="14.00"> &lt;= | &gt;= | = | &lt;&gt; </text>
</g>
<!-- q1&#45;&gt;Dead -->
<g id="edge6" class="edge">
<title>q1&#45;&gt;Dead</title>
<path fill="none" stroke="black" d="M250.24,-506.8C256.26,-509.16 263.11,-511.44 269.6,-512.67 370.39,-531.72 397.79,-515 500.36,-515.67 691.07,-516.91 1042.6,-514.29 1044.86,-512.67 1075.53,-490.62 1086.43,-447.3 1090.19,-415.24"/>
<polygon fill="black" stroke="black" points="1093.22,-415.87 1091.11,-407.11 1087.3,-415.27 1093.22,-415.87"/>
<text text-anchor="middle" x="547.61" y="-519.12" font-family="Times New Roman,serif" font-size="14.00"> &lt;= | &gt;= | = | &lt;&gt; </text>
</g>
<!-- q1&#45;&gt;Dead -->
<g id="edge7" class="edge">
<title>q1&#45;&gt;Dead</title>
<path fill="none" stroke="black" d="M251.81,-498.67C274.88,-498.67 314.62,-498.67 348.73,-498.67 348.73,-498.67 348.73,-498.67 886.11,-498.67 957.46,-498.67 987.55,-517.19 1044.86,-474.67 1064.43,-460.14 1076.21,-435.38 1083.09,-414.25"/>
<polygon fill="black" stroke="black" points="1086.23,-415.16 1085.84,-406.16 1080.53,-413.44 1086.23,-415.16"/>
<text text-anchor="middle" x="547.61" y="-501.12" font-family="Times New Roman,serif" font-size="14.00"> [0&#45;9] </text>
</g>
<!-- q1&#45;&gt;Dead -->
<g id="edge8" class="edge">
<title>q1&#45;&gt;Dead</title>
<path fill="none" stroke="black" d="M251.59,-495.5C295.43,-488.35 406.71,-470.78 500.36,-460.92 691.77,-440.75 740.87,-450.12 932.36,-430.67 982.54,-425.57 998.76,-436.16 1044.86,-415.67 1051.9,-412.54 1058.71,-408.01 1064.85,-403.12"/>
<polygon fill="black" stroke="black" points="1066.18,-405.04 1070.73,-397.27 1062.32,-400.51 1066.18,-405.04"/>
<text text-anchor="middle" x="547.61" y="-464.12" font-family="Times New Roman,serif" font-size="14.00"> Dot(.) </text>
</g>
<!-- q2 -->
<g id="node5" class="node">
<title>q2</title>
<ellipse fill="none" stroke="black" cx="349.73" cy="-371.67" rx="20.13" ry="20.13"/>
<text text-anchor="middle" x="349.73" y="-366.24" font-family="Times New Roman,serif" font-size="14.00">q2</text>
</g>
<!-- q1&#45;&gt;q2 -->
<g id="edge9" class="edge">
<title>q1&#45;&gt;q2</title>
<path fill="none" stroke="black" d="M239.82,-480.07C246.22,-465.4 256.52,-444.97 269.6,-429.92 285.09,-412.11 306.95,-396.53 323.77,-385.98"/>
<polygon fill="black" stroke="black" points="324.87,-388.19 330.57,-381.22 321.77,-383.11 324.87,-388.19"/>
<text text-anchor="middle" x="290.6" y="-433.12" font-family="Times New Roman,serif" font-size="14.00"> Space </text>
</g>
<!-- q2&#45;&gt;Dead -->
<g id="edge10" class="edge">
<title>q2&#45;&gt;Dead</title>
<path fill="none" stroke="black" d="M366.61,-382.79C387.21,-396.12 424.76,-416.67 460.36,-416.67 460.36,-416.67 460.36,-416.67 886.11,-416.67 946.12,-416.67 1014.1,-399.7 1054.97,-387.6"/>
<polygon fill="black" stroke="black" points="1055.73,-390.17 1063.01,-384.87 1054.01,-384.48 1055.73,-390.17"/>
<text text-anchor="middle" x="660.11" y="-419.12" font-family="Times New Roman,serif" font-size="14.00"> &lt;= | &gt;= | = | &lt;&gt; </text>
</g>
<!-- q2&#45;&gt;Dead -->
<g id="edge12" class="edge">
<title>q2&#45;&gt;Dead</title>
<path fill="none" stroke="black" d="M370.18,-371.77C469.22,-372.31 918.16,-374.73 1053.34,-375.46"/>
<polygon fill="black" stroke="black" points="1053,-378.44 1061.52,-375.51 1053.03,-372.49 1053,-378.44"/>
<text text-anchor="middle" x="660.11" y="-376.12" font-family="Times New Roman,serif" font-size="14.00"> Dot(.) </text>
</g>
<!-- q2&#45;&gt;q2 -->
<g id="edge13" class="edge">
<title>q2&#45;&gt;q2</title>
<path fill="none" stroke="black" d="M339.92,-389.71C337.92,-400.11 341.19,-409.79 349.73,-409.79 355.61,-409.79 358.99,-405.22 359.88,-398.98"/>
<polygon fill="black" stroke="black" points="362.82,-399.1 359.54,-390.71 356.88,-399.31 362.82,-399.1"/>
<text text-anchor="middle" x="349.73" y="-412.24" font-family="Times New Roman,serif" font-size="14.00"> Space </text>
</g>
<!-- q3 -->
<g id="node6" class="node">
<title>q3</title>
<ellipse fill="none" stroke="black" cx="461.36" cy="-236.67" rx="20.13" ry="20.13"/>
<text text-anchor="middle" x="461.36" y="-231.24" font-family="Times New Roman,serif" font-size="14.00">q3</text>
</g>
<!-- q2&#45;&gt;q3 -->
<g id="edge11" class="edge">
<title>q2&#45;&gt;q3</title>
<path fill="none" stroke="black" d="M363.31,-356.18C382.64,-332.38 419.75,-286.68 442.06,-259.21"/>
<polygon fill="black" stroke="black" points="444.88,-261.45 447.93,-252.97 440.26,-257.7 444.88,-261.45"/>
<text text-anchor="middle" x="405.11" y="-327.12" font-family="Times New Roman,serif" font-size="14.00"> [0&#45;9] </text>
</g>
<!-- q3&#45;&gt;Dead -->
<g id="edge14" class="edge">
<title>q3&#45;&gt;Dead</title>
<path fill="none" stroke="black" d="M479.54,-246.27C485.99,-249.72 493.43,-253.53 500.36,-256.67 549.13,-278.73 561.04,-286.23 612.86,-299.67 800.61,-348.37 855.39,-320.15 1044.86,-361.67 1048.18,-362.39 1051.61,-363.24 1055.03,-364.14"/>
<polygon fill="black" stroke="black" points="1054.01,-367.22 1062.99,-366.62 1055.6,-361.48 1054.01,-367.22"/>
<text text-anchor="middle" x="772.61" y="-336.12" font-family="Times New Roman,serif" font-size="14.00"> &lt;= | &gt;= | = | &lt;&gt; </text>
</g>
<!-- q3&#45;&gt;q3 -->
<g id="edge15" class="edge">
<title>q3&#45;&gt;q3</title>
<path fill="none" stroke="black" d="M451.39,-254.71C449.36,-265.11 452.68,-274.79 461.36,-274.79 467.32,-274.79 470.76,-270.22 471.66,-263.98"/>
<polygon fill="black" stroke="black" points="474.61,-264.1 471.32,-255.71 468.66,-264.31 474.61,-264.1"/>
<text text-anchor="middle" x="461.36" y="-277.24" font-family="Times New Roman,serif" font-size="14.00"> [0&#45;9] </text>
</g>
<!-- q4 -->
<g id="node7" class="node">
<title>q4</title>
<ellipse fill="none" stroke="black" cx="660.11" cy="-236.67" rx="20.13" ry="20.13"/>
<text text-anchor="middle" x="660.11" y="-231.24" font-family="Times New Roman,serif" font-size="14.00">q4</text>
</g>
<!-- q3&#45;&gt;q4 -->
<g id="edge17" class="edge">
<title>q3&#45;&gt;q4</title>
<path fill="none" stroke="black" d="M481.94,-236.67C516.78,-236.67 589.67,-236.67 630.26,-236.67"/>
<polygon fill="black" stroke="black" points="630.1,-239.64 638.6,-236.67 630.1,-233.69 630.1,-239.64"/>
<text text-anchor="middle" x="547.61" y="-239.12" font-family="Times New Roman,serif" font-size="14.00"> Space </text>
</g>
<!-- q6 -->
<g id="node9" class="node">
<title>q6</title>
<ellipse fill="none" stroke="black" cx="772.61" cy="-94.67" rx="20.13" ry="20.13"/>
<text text-anchor="middle" x="772.61" y="-89.24" font-family="Times New Roman,serif" font-size="14.00">q6</text>
</g>
<!-- q3&#45;&gt;q6 -->
<g id="edge16" class="edge">
<title>q3&#45;&gt;q6</title>
<path fill="none" stroke="black" d="M479.66,-227.42C486.11,-224.03 493.53,-220.23 500.36,-216.92 546.89,-194.36 686.56,-132.31 745.21,-106.34"/>
<polygon fill="black" stroke="black" points="746.01,-108.79 752.58,-102.63 743.61,-103.35 746.01,-108.79"/>
<text text-anchor="middle" x="547.61" y="-220.12" font-family="Times New Roman,serif" font-size="14.00"> Dot(.) </text>
</g>
<!-- q4&#45;&gt;Dead -->
<g id="edge18" class="edge">
<title>q4&#45;&gt;Dead</title>
<path fill="none" stroke="black" d="M679.84,-242.63C692.6,-246.58 709.91,-251.75 725.36,-255.67 866.07,-291.39 919.03,-251.25 1044.86,-323.67 1053.83,-328.83 1062.04,-336.3 1069,-343.97"/>
<polygon fill="black" stroke="black" points="1067.24,-345.49 1075.02,-350.01 1071.76,-341.62 1067.24,-345.49"/>
<text text-anchor="middle" x="885.11" y="-283.12" font-family="Times New Roman,serif" font-size="14.00"> &lt;= | &gt;= | = | &lt;&gt; </text>
</g>
<!-- q4&#45;&gt;Dead -->
<g id="edge20" class="edge">
<title>q4&#45;&gt;Dead</title>
<path fill="none" stroke="black" d="M680.67,-236.33C750.71,-235.49 987.86,-236.14 1044.86,-281.67 1062.46,-295.73 1074.04,-318.09 1081.31,-337.47"/>
<polygon fill="black" stroke="black" points="1078.83,-338.38 1084.45,-345.41 1084.44,-336.41 1078.83,-338.38"/>
<text text-anchor="middle" x="885.11" y="-250.12" font-family="Times New Roman,serif" font-size="14.00"> Dot(.) </text>
</g>
<!-- q4&#45;&gt;q4 -->
<g id="edge21" class="edge">
<title>q4&#45;&gt;q4</title>
<path fill="none" stroke="black" d="M643.65,-248.77C633.97,-261.09 639.45,-274.79 660.11,-274.79 676.08,-274.79 682.98,-266.59 680.81,-257.18"/>
<polygon fill="black" stroke="black" points="683.05,-256.02 676.57,-249.77 677.74,-258.7 683.05,-256.02"/>
<text text-anchor="middle" x="660.11" y="-277.24" font-family="Times New Roman,serif" font-size="14.00"> Space </text>
</g>
<!-- q5 -->
<g id="node8" class="node">
<title>q5</title>
<ellipse fill="none" stroke="black" cx="885.11" cy="-113.67" rx="20.13" ry="20.13"/>
<ellipse fill="none" stroke="black" cx="885.11" cy="-113.67" rx="24.13" ry="24.13"/>
<text text-anchor="middle" x="885.11" y="-108.24" font-family="Times New Roman,serif" font-size="14.00">q5</text>
</g>
<!-- q4&#45;&gt;q5 -->
<g id="edge19" class="edge">
<title>q4&#45;&gt;q5</title>
<path fill="none" stroke="black" d="M678.67,-228.9C708.39,-215.54 770.22,-186.82 819.86,-157.67 832.64,-150.16 846.27,-141 857.66,-133"/>
<polygon fill="black" stroke="black" points="858.96,-135.02 864.16,-127.67 855.51,-130.17 858.96,-135.02"/>
<text text-anchor="middle" x="772.61" y="-209.12" font-family="Times New Roman,serif" font-size="14.00"> [0&#45;9] </text>
</g>
<!-- q5&#45;&gt;Dead -->
<g id="edge22" class="edge">
<title>q5&#45;&gt;Dead</title>
<path fill="none" stroke="black" d="M906.6,-125.24C947.3,-148.39 1035.27,-199.26 1044.86,-211.92 1072.49,-248.39 1083.93,-300.57 1088.65,-336.16"/>
<polygon fill="black" stroke="black" points="1085.78,-336.2 1089.76,-344.28 1091.69,-335.48 1085.78,-336.2"/>
<text text-anchor="middle" x="997.61" y="-215.12" font-family="Times New Roman,serif" font-size="14.00"> &lt;= | &gt;= | = | &lt;&gt; </text>
</g>
<!-- q5&#45;&gt;Dead -->
<g id="edge24" class="edge">
<title>q5&#45;&gt;Dead</title>
<path fill="none" stroke="black" d="M908.95,-108.76C943.21,-102.86 1007.82,-97.61 1044.86,-131.92 1074.12,-159.02 1085.69,-274.36 1089.86,-336.17"/>
<polygon fill="black" stroke="black" points="1086.95,-336.32 1090.47,-344.61 1092.89,-335.93 1086.95,-336.32"/>
<text text-anchor="middle" x="997.61" y="-135.12" font-family="Times New Roman,serif" font-size="14.00"> Dot(.) </text>
</g>
<!-- q5&#45;&gt;q5 -->
<g id="edge23" class="edge">
<title>q5&#45;&gt;q5</title>
<path fill="none" stroke="black" d="M874.82,-135.77C873.55,-146.41 876.98,-155.79 885.11,-155.79 890.7,-155.79 894.06,-151.36 895.21,-145.13"/>
<polygon fill="black" stroke="black" points="898.2,-145.33 895.4,-136.77 892.25,-145.21 898.2,-145.33"/>
<text text-anchor="middle" x="885.11" y="-158.24" font-family="Times New Roman,serif" font-size="14.00"> [0&#45;9] </text>
</g>
<!-- q5&#45;&gt;q5 -->
<g id="edge25" class="edge">
<title>q5&#45;&gt;q5</title>
<path fill="none" stroke="black" d="M868.96,-132.13C858.85,-151.71 864.23,-173.79 885.11,-173.79 902.88,-173.79 909.42,-157.78 904.73,-140.94"/>
<polygon fill="black" stroke="black" points="907.14,-139.95 901.25,-133.13 901.61,-142.13 907.14,-139.95"/>
<text text-anchor="middle" x="885.11" y="-176.24" font-family="Times New Roman,serif" font-size="14.00"> Space </text>
</g>
<!-- q6&#45;&gt;Dead -->
<g id="edge26" class="edge">
<title>q6&#45;&gt;Dead</title>
<path fill="none" stroke="black" d="M790.34,-84.46C802.91,-77.42 820.81,-68.67 837.86,-64.92 929.03,-44.83 983.55,-30.25 1044.86,-100.67 1074.87,-135.14 1086.23,-268.23 1090.13,-335.81"/>
<polygon fill="black" stroke="black" points="1087.22,-335.96 1090.65,-344.29 1093.16,-335.63 1087.22,-335.96"/>
<text text-anchor="middle" x="885.11" y="-68.12" font-family="Times New Roman,serif" font-size="14.00"> &lt;= | &gt;= | = | &lt;&gt; </text>
</g>
<!-- q6&#45;&gt;Dead -->
<g id="edge28" class="edge">
<title>q6&#45;&gt;Dead</title>
<path fill="none" stroke="black" d="M784.28,-77.99C795.46,-62.23 814.61,-39.6 837.86,-29.92 923.03,5.56 979.53,19.49 1044.86,-45.67 1084.97,-85.67 1091.28,-257.51 1092.03,-336.13"/>
<polygon fill="black" stroke="black" points="1089.06,-335.76 1092.09,-344.24 1095.01,-335.72 1089.06,-335.76"/>
<text text-anchor="middle" x="885.11" y="-33.12" font-family="Times New Roman,serif" font-size="14.00"> Dot(.) </text>
</g>
<!-- q6&#45;&gt;q3 -->
<g id="edge27" class="edge">
<title>q6&#45;&gt;q3</title>
<path fill="none" stroke="black" d="M752.19,-93.3C703.59,-90.96 575.28,-91.63 500.36,-155.92 484.64,-169.41 474.97,-190.83 469.33,-208.22"/>
<polygon fill="black" stroke="black" points="466.32,-206.89 466.73,-215.89 472.02,-208.6 466.32,-206.89"/>
<text text-anchor="middle" x="547.61" y="-159.12" font-family="Times New Roman,serif" font-size="14.00"> [0&#45;9] </text>
</g>
<!-- q6&#45;&gt;q6 -->
<g id="edge29" class="edge">
<title>q6&#45;&gt;q6</title>
<path fill="none" stroke="black" d="M756.15,-106.77C746.47,-119.09 751.95,-132.79 772.61,-132.79 788.58,-132.79 795.48,-124.59 793.31,-115.18"/>
<polygon fill="black" stroke="black" points="795.55,-114.02 789.07,-107.77 790.24,-116.7 795.55,-114.02"/>
<text text-anchor="middle" x="772.61" y="-135.24" font-family="Times New Roman,serif" font-size="14.00"> Space </text>
</g>
</g>
</svg>
