<?xml version="1.0" encoding="UTF-8" standalone="no"?>
<!DOCTYPE svg PUBLIC "-//W3C//DTD SVG 1.1//EN"
 "http://www.w3.org/Graphics/SVG/1.1/DTD/svg11.dtd">
<!-- Generated by graphviz version 8.0.5 (20230430.1635)
 -->
<!-- Pages: 1 -->
<svg width="576pt" height="181pt"
 viewBox="0.00 0.00 576.00 181.31" xmlns="http://www.w3.org/2000/svg" xmlns:xlink="http://www.w3.org/1999/xlink">
<g id="graph0" class="graph" transform="scale(0.409465 0.409465) rotate(0) translate(4 438.79)">
<polygon fill="white" stroke="none" points="-4,4 -4,-438.79 1402.71,-438.79 1402.71,4 -4,4"/>
<!-- Initial -->
<g id="node1" class="node">
<title>Initial</title>
<ellipse fill="black" stroke="black" cx="1.8" cy="-364.3" rx="1.8" ry="1.8"/>
</g>
<!-- q0 -->
<g id="node3" class="node">
<title>q0</title>
<ellipse fill="none" stroke="black" cx="60.73" cy="-364.3" rx="20.13" ry="20.13"/>
<text text-anchor="middle" x="60.73" y="-358.87" font-family="Times New Roman,serif" font-size="14.00">q0</text>
</g>
<!-- Initial&#45;&gt;q0 -->
<g id="edge1" class="edge">
<title>Initial&#45;&gt;q0</title>
<path fill="none" stroke="black" d="M3.79,-364.3C7.21,-364.3 19.02,-364.3 30.91,-364.3"/>
<polygon fill="black" stroke="black" points="30.8,-367.27 39.3,-364.3 30.8,-361.32 30.8,-367.27"/>
</g>
<!-- Dead -->
<g id="node2" class="node">
<title>Dead</title>
<ellipse fill="none" stroke="black" cx="1251.71" cy="-198.3" rx="30.11" ry="30.11"/>
<text text-anchor="middle" x="1251.71" y="-192.87" font-family="Times New Roman,serif" font-size="14.00">Dead</text>
</g>
<!-- Dead&#45;&gt;Dead -->
<g id="edge18" class="edge">
<title>Dead&#45;&gt;Dead</title>
<path fill="none" stroke="black" d="M1242.58,-227.42C1242.38,-237.87 1245.43,-246.4 1251.71,-246.4 1255.94,-246.4 1258.7,-242.55 1260,-236.85"/>
<polygon fill="black" stroke="black" points="1263.05,-237.15 1260.85,-228.42 1257.12,-236.61 1263.05,-237.15"/>
<text text-anchor="middle" x="1251.71" y="-248.85" font-family="Times New Roman,serif" font-size="14.00"> # </text>
</g>
<!-- Dead&#45;&gt;Dead -->
<g id="edge19" class="edge">
<title>Dead&#45;&gt;Dead</title>
<path fill="none" stroke="black" d="M1235.78,-224.08C1229.83,-244.04 1235.14,-264.4 1251.71,-264.4 1265.83,-264.4 1271.77,-249.64 1269.55,-232.93"/>
<polygon fill="black" stroke="black" points="1272.34,-232.76 1267.64,-225.08 1266.53,-234.02 1272.34,-232.76"/>
<text text-anchor="middle" x="1251.71" y="-266.85" font-family="Times New Roman,serif" font-size="14.00"> \ </text>
</g>
<!-- Dead&#45;&gt;Dead -->
<g id="edge20" class="edge">
<title>Dead&#45;&gt;Dead</title>
<path fill="none" stroke="black" d="M1232.02,-221.55C1217.14,-249.53 1223.7,-282.4 1251.71,-282.4 1276.88,-282.4 1284.73,-255.87 1275.28,-230.18"/>
<polygon fill="black" stroke="black" points="1277.6,-229.09 1271.41,-222.55 1272.17,-231.52 1277.6,-229.09"/>
<text text-anchor="middle" x="1251.71" y="-284.85" font-family="Times New Roman,serif" font-size="14.00"> space </text>
</g>
<!-- Dead&#45;&gt;Dead -->
<g id="edge21" class="edge">
<title>Dead&#45;&gt;Dead</title>
<path fill="none" stroke="black" d="M1229.96,-219.6C1204.55,-254.81 1211.8,-300.4 1251.71,-300.4 1288.67,-300.4 1297.62,-261.33 1278.58,-227.59"/>
<polygon fill="black" stroke="black" points="1280.56,-226.15 1273.46,-220.6 1275.55,-229.36 1280.56,-226.15"/>
<text text-anchor="middle" x="1251.71" y="-302.85" font-family="Times New Roman,serif" font-size="14.00"> Backspace | Tab | Linefeed | Page | Return | Rubout </text>
</g>
<!-- q0&#45;&gt;Dead -->
<g id="edge3" class="edge">
<title>q0&#45;&gt;Dead</title>
<path fill="none" stroke="black" d="M75.43,-378.5C91.83,-393.9 120.85,-416.3 150.98,-416.3 150.98,-416.3 150.98,-416.3 868.48,-416.3 1018.38,-416.3 1090.31,-476.44 1203.61,-378.3 1224.62,-360.09 1238.67,-284.98 1245.63,-237.73"/>
<polygon fill="black" stroke="black" points="1248.7,-238.22 1246.96,-229.38 1242.81,-237.38 1248.7,-238.22"/>
<text text-anchor="middle" x="366.35" y="-418.75" font-family="Times New Roman,serif" font-size="14.00"> \ </text>
</g>
<!-- q0&#45;&gt;Dead -->
<g id="edge5" class="edge">
<title>q0&#45;&gt;Dead</title>
<path fill="none" stroke="black" d="M81.23,-364.3C99.31,-364.3 126.96,-364.3 150.98,-364.3 150.98,-364.3 150.98,-364.3 868.48,-364.3 943.41,-364.3 1144.66,-373.55 1203.61,-327.3 1230.86,-305.91 1242.35,-267.26 1247.19,-237.82"/>
<polygon fill="black" stroke="black" points="1250.25,-238.46 1248.54,-229.62 1244.36,-237.59 1250.25,-238.46"/>
<text text-anchor="middle" x="366.35" y="-366.75" font-family="Times New Roman,serif" font-size="14.00"> Backspace | Tab | Linefeed | Page | Return | Rubout </text>
</g>
<!-- q0&#45;&gt;q0 -->
<g id="edge4" class="edge">
<title>q0&#45;&gt;q0</title>
<path fill="none" stroke="black" d="M53.74,-383.52C52.66,-393.46 54.99,-402.42 60.73,-402.42 64.58,-402.42 66.89,-398.38 67.67,-392.71"/>
<polygon fill="black" stroke="black" points="70.65,-393.03 67.71,-384.52 64.7,-393.01 70.65,-393.03"/>
<text text-anchor="middle" x="60.73" y="-404.87" font-family="Times New Roman,serif" font-size="14.00"> space </text>
</g>
<!-- q1 -->
<g id="node4" class="node">
<title>q1</title>
<ellipse fill="none" stroke="black" cx="151.98" cy="-280.3" rx="20.13" ry="20.13"/>
<text text-anchor="middle" x="151.98" y="-274.87" font-family="Times New Roman,serif" font-size="14.00">q1</text>
</g>
<!-- q0&#45;&gt;q1 -->
<g id="edge2" class="edge">
<title>q0&#45;&gt;q1</title>
<path fill="none" stroke="black" d="M76.07,-350.8C90.64,-337.08 113.37,-315.69 129.98,-300.06"/>
<polygon fill="black" stroke="black" points="131.52,-302.75 135.67,-294.76 127.45,-298.42 131.52,-302.75"/>
<text text-anchor="middle" x="106.35" y="-330.75" font-family="Times New Roman,serif" font-size="14.00"> # </text>
</g>
<!-- q1&#45;&gt;Dead -->
<g id="edge6" class="edge">
<title>q1&#45;&gt;Dead</title>
<path fill="none" stroke="black" d="M170.74,-288.44C176.76,-290.81 183.6,-293.08 190.1,-294.3 339.2,-322.15 379.68,-296.63 531.35,-297.3 680.74,-297.95 1077.14,-373.81 1203.61,-294.3 1223.73,-281.64 1235.51,-257.63 1242.26,-236.78"/>
<polygon fill="black" stroke="black" points="1245.36,-237.78 1244.93,-228.79 1239.66,-236.09 1245.36,-237.78"/>
<text text-anchor="middle" x="678.35" y="-324.75" font-family="Times New Roman,serif" font-size="14.00"> # </text>
</g>
<!-- q1&#45;&gt;Dead -->
<g id="edge8" class="edge">
<title>q1&#45;&gt;Dead</title>
<path fill="none" stroke="black" d="M172.54,-280.08C314.33,-278.45 1179.55,-268.09 1203.61,-256.3 1214.54,-250.93 1223.8,-241.7 1231.13,-232.16"/>
<polygon fill="black" stroke="black" points="1234.07,-234.16 1236.59,-225.51 1229.23,-230.7 1234.07,-234.16"/>
<text text-anchor="middle" x="678.35" y="-277.75" font-family="Times New Roman,serif" font-size="14.00"> space </text>
</g>
<!-- q1&#45;&gt;Dead -->
<g id="edge9" class="edge">
<title>q1&#45;&gt;Dead</title>
<path fill="none" stroke="black" d="M172.41,-277.69C185.63,-275.99 203.52,-273.8 219.35,-272.3 357.73,-259.14 392.68,-260.05 531.35,-250.55 830.11,-230.08 905.88,-237.38 1203.61,-205.3 1206.43,-204.99 1209.35,-204.64 1212.28,-204.27"/>
<polygon fill="black" stroke="black" points="1212.59,-207.09 1220.61,-202.99 1211.79,-201.19 1212.59,-207.09"/>
<text text-anchor="middle" x="678.35" y="-253.75" font-family="Times New Roman,serif" font-size="14.00"> Backspace | Tab | Linefeed | Page | Return | Rubout </text>
</g>
<!-- q2 -->
<g id="node5" class="node">
<title>q2</title>
<ellipse fill="none" stroke="black" cx="366.35" cy="-153.3" rx="20.13" ry="20.13"/>
<text text-anchor="middle" x="366.35" y="-147.87" font-family="Times New Roman,serif" font-size="14.00">q2</text>
</g>
<!-- q1&#45;&gt;q2 -->
<g id="edge7" class="edge">
<title>q1&#45;&gt;q2</title>
<path fill="none" stroke="black" d="M158.9,-261.11C164.59,-245.7 174.62,-224.54 190.1,-211.55 233.05,-175.5 299.1,-161.52 336.65,-156.28"/>
<polygon fill="black" stroke="black" points="336.95,-159.11 345,-155.07 336.18,-153.21 336.95,-159.11"/>
<text text-anchor="middle" x="195.73" y="-214.75" font-family="Times New Roman,serif" font-size="14.00"> \ </text>
</g>
<!-- q2&#45;&gt;Dead -->
<g id="edge10" class="edge">
<title>q2&#45;&gt;Dead</title>
<path fill="none" stroke="black" d="M386.56,-154.51C456.58,-158.89 704.76,-174.24 909.61,-184.3 1019.41,-189.69 1149.16,-194.62 1212.32,-196.92"/>
<polygon fill="black" stroke="black" points="1211.9,-199.92 1220.5,-197.26 1212.12,-193.97 1211.9,-199.92"/>
<text text-anchor="middle" x="867.48" y="-185.75" font-family="Times New Roman,serif" font-size="14.00"> # </text>
</g>
<!-- q2&#45;&gt;Dead -->
<g id="edge12" class="edge">
<title>q2&#45;&gt;Dead</title>
<path fill="none" stroke="black" d="M386.89,-153.11C455.92,-152.57 694.79,-151.58 891.61,-161.55 1030.57,-168.58 1066.16,-165.7 1203.61,-187.3 1206.77,-187.79 1210.04,-188.39 1213.31,-189.04"/>
<polygon fill="black" stroke="black" points="1212.52,-192.12 1221.45,-190.98 1213.76,-186.3 1212.52,-192.12"/>
<text text-anchor="middle" x="867.48" y="-164.75" font-family="Times New Roman,serif" font-size="14.00"> space </text>
</g>
<!-- q2&#45;&gt;q2 -->
<g id="edge11" class="edge">
<title>q2&#45;&gt;q2</title>
<path fill="none" stroke="black" d="M347.49,-161.16C325.08,-174.32 331.36,-191.42 366.35,-191.42 396.7,-191.42 405.46,-178.56 392.63,-166.56"/>
<polygon fill="black" stroke="black" points="394.84,-163.76 386.22,-161.16 391.33,-168.57 394.84,-163.76"/>
<text text-anchor="middle" x="366.35" y="-193.87" font-family="Times New Roman,serif" font-size="14.00"> \ </text>
</g>
<!-- q3 -->
<g id="node6" class="node">
<title>q3</title>
<ellipse fill="none" stroke="black" cx="867.48" cy="-86.3" rx="20.13" ry="20.13"/>
<ellipse fill="none" stroke="black" cx="867.48" cy="-86.3" rx="24.13" ry="24.13"/>
<text text-anchor="middle" x="867.48" y="-80.87" font-family="Times New Roman,serif" font-size="14.00">q3</text>
</g>
<!-- q2&#45;&gt;q3 -->
<g id="edge13" class="edge">
<title>q2&#45;&gt;q3</title>
<path fill="none" stroke="black" d="M385.9,-148.31C416.13,-140.37 478.02,-124.89 531.35,-116.55 641.52,-99.31 773.71,-90.96 833.84,-87.83"/>
<polygon fill="black" stroke="black" points="833.86,-90.75 842.19,-87.35 833.55,-84.81 833.86,-90.75"/>
<text text-anchor="middle" x="678.35" y="-119.75" font-family="Times New Roman,serif" font-size="14.00"> Backspace | Tab | Linefeed | Page | Return | Rubout </text>
</g>
<!-- q3&#45;&gt;Dead -->
<g id="edge14" class="edge">
<title>q3&#45;&gt;Dead</title>
<path fill="none" stroke="black" d="M884.53,-103.48C891.57,-109.9 900.33,-116.54 909.61,-120.3 1031.09,-169.51 1086.72,-84.23 1203.61,-143.55 1213.65,-148.64 1222.45,-156.91 1229.64,-165.49"/>
<polygon fill="black" stroke="black" points="1227.7,-166.84 1235.29,-171.7 1232.39,-163.18 1227.7,-166.84"/>
<text text-anchor="middle" x="1056.61" y="-146.75" font-family="Times New Roman,serif" font-size="14.00"> # </text>
</g>
<!-- q3&#45;&gt;Dead -->
<g id="edge15" class="edge">
<title>q3&#45;&gt;Dead</title>
<path fill="none" stroke="black" d="M891.98,-85.92C963.91,-84.95 1177.77,-83.54 1203.61,-100.55 1223.76,-113.81 1235.53,-138.26 1242.27,-159.39"/>
<polygon fill="black" stroke="black" points="1239.7,-160.18 1244.95,-167.5 1245.41,-158.51 1239.7,-160.18"/>
<text text-anchor="middle" x="1056.61" y="-103.75" font-family="Times New Roman,serif" font-size="14.00"> \ </text>
</g>
<!-- q3&#45;&gt;Dead -->
<g id="edge16" class="edge">
<title>q3&#45;&gt;Dead</title>
<path fill="none" stroke="black" d="M888.74,-74.36C895.19,-71.17 902.5,-68.16 909.61,-66.55 973.31,-52.04 1150.2,-28.92 1203.61,-66.55 1232.94,-87.21 1244.11,-127.89 1248.3,-158.61"/>
<polygon fill="black" stroke="black" points="1245.44,-158.7 1249.4,-166.79 1251.35,-158 1245.44,-158.7"/>
<text text-anchor="middle" x="1056.61" y="-69.75" font-family="Times New Roman,serif" font-size="14.00"> space </text>
</g>
<!-- q3&#45;&gt;Dead -->
<g id="edge17" class="edge">
<title>q3&#45;&gt;Dead</title>
<path fill="none" stroke="black" d="M877.42,-63.87C884.1,-50.4 894.67,-34.4 909.61,-26.55 967.44,3.85 1151.66,13.07 1203.61,-26.55 1224.55,-42.52 1238.48,-113.31 1245.46,-158.87"/>
<polygon fill="black" stroke="black" points="1242.65,-159.21 1246.84,-167.18 1248.54,-158.34 1242.65,-159.21"/>
<text text-anchor="middle" x="1056.61" y="-29.75" font-family="Times New Roman,serif" font-size="14.00"> Backspace | Tab | Linefeed | Page | Return | Rubout </text>
</g>
</g>
</svg>
