<?xml version="1.0" encoding="UTF-8" standalone="no"?>
<!DOCTYPE svg PUBLIC "-//W3C//DTD SVG 1.1//EN"
 "http://www.w3.org/Graphics/SVG/1.1/DTD/svg11.dtd">
<!-- Generated by graphviz version 8.0.5 (20230430.1635)
 -->
<!-- Pages: 1 -->
<svg width="535pt" height="277pt"
 viewBox="0.00 0.00 535.21 276.88" xmlns="http://www.w3.org/2000/svg" xmlns:xlink="http://www.w3.org/1999/xlink">
<g id="graph0" class="graph" transform="scale(1 1) rotate(0) translate(4 272.88)">
<polygon fill="white" stroke="none" points="-4,4 -4,-272.88 531.21,-272.88 531.21,4 -4,4"/>
<!-- Initial -->
<g id="node1" class="node">
<title>Initial</title>
<ellipse fill="black" stroke="black" cx="1.8" cy="-202.13" rx="1.8" ry="1.8"/>
</g>
<!-- q0 -->
<g id="node3" class="node">
<title>q0</title>
<ellipse fill="none" stroke="black" cx="60.73" cy="-202.13" rx="20.13" ry="20.13"/>
<text text-anchor="middle" x="60.73" y="-196.7" font-family="Times New Roman,serif" font-size="14.00">q0</text>
</g>
<!-- Initial&#45;&gt;q0 -->
<g id="edge1" class="edge">
<title>Initial&#45;&gt;q0</title>
<path fill="none" stroke="black" d="M3.79,-202.13C7.21,-202.13 19.02,-202.13 30.91,-202.13"/>
<polygon fill="black" stroke="black" points="30.8,-205.1 39.3,-202.13 30.8,-199.15 30.8,-205.1"/>
</g>
<!-- Dead -->
<g id="node2" class="node">
<title>Dead</title>
<ellipse fill="none" stroke="black" cx="485.96" cy="-102.13" rx="30.11" ry="30.11"/>
<text text-anchor="middle" x="485.96" y="-96.7" font-family="Times New Roman,serif" font-size="14.00">Dead</text>
</g>
<!-- Dead&#45;&gt;Dead -->
<g id="edge18" class="edge">
<title>Dead&#45;&gt;Dead</title>
<path fill="none" stroke="black" d="M481.77,-132.19C481.77,-142.21 483.17,-150.23 485.96,-150.23 487.8,-150.23 489.03,-146.78 489.66,-141.57"/>
<polygon fill="black" stroke="black" points="492.67,-141.84 490.15,-133.19 486.73,-141.52 492.67,-141.84"/>
<text text-anchor="middle" x="485.96" y="-152.68" font-family="Times New Roman,serif" font-size="14.00"> Space </text>
</g>
<!-- Dead&#45;&gt;Dead -->
<g id="edge19" class="edge">
<title>Dead&#45;&gt;Dead</title>
<path fill="none" stroke="black" d="M478.21,-131.7C476.27,-150.37 478.85,-168.23 485.96,-168.23 491.85,-168.23 494.64,-155.98 494.32,-141.16"/>
<polygon fill="black" stroke="black" points="497.22,-140.99 493.71,-132.7 491.28,-141.37 497.22,-140.99"/>
<text text-anchor="middle" x="485.96" y="-170.68" font-family="Times New Roman,serif" font-size="14.00"> &quot; </text>
</g>
<!-- Dead&#45;&gt;Dead -->
<g id="edge20" class="edge">
<title>Dead&#45;&gt;Dead</title>
<path fill="none" stroke="black" d="M475.8,-130.56C470.53,-157.27 473.92,-186.23 485.96,-186.23 496.64,-186.23 500.51,-163.46 497.58,-139.68"/>
<polygon fill="black" stroke="black" points="500.4,-139.49 496.12,-131.56 494.53,-140.43 500.4,-139.49"/>
<text text-anchor="middle" x="485.96" y="-188.68" font-family="Times New Roman,serif" font-size="14.00"> \ </text>
</g>
<!-- Dead&#45;&gt;Dead -->
<g id="edge21" class="edge">
<title>Dead&#45;&gt;Dead</title>
<path fill="none" stroke="black" d="M474.01,-130.09C464.83,-164.13 468.82,-204.23 485.96,-204.23 501.64,-204.23 506.31,-170.72 499.99,-138.97"/>
<polygon fill="black" stroke="black" points="502.75,-138.69 497.92,-131.09 496.96,-140.05 502.75,-138.69"/>
<text text-anchor="middle" x="485.96" y="-206.68" font-family="Times New Roman,serif" font-size="14.00"> All except [&quot;] </text>
</g>
<!-- q0&#45;&gt;Dead -->
<g id="edge4" class="edge">
<title>q0&#45;&gt;Dead</title>
<path fill="none" stroke="black" d="M79.85,-209.65C137.98,-232.49 322.59,-294.73 437.86,-216.13 462.36,-199.42 474.14,-167.42 479.79,-141.57"/>
<polygon fill="black" stroke="black" points="482.88,-142.28 481.6,-133.37 477.04,-141.13 482.88,-142.28"/>
<text text-anchor="middle" x="229.85" y="-255.58" font-family="Times New Roman,serif" font-size="14.00"> \ </text>
</g>
<!-- q0&#45;&gt;Dead -->
<g id="edge5" class="edge">
<title>q0&#45;&gt;Dead</title>
<path fill="none" stroke="black" d="M81.27,-203.61C127.1,-206.48 244.61,-210.33 337.36,-183.13 380.3,-170.53 424.67,-144.03 453.41,-124.76"/>
<polygon fill="black" stroke="black" points="454.73,-126.78 460.08,-119.53 451.38,-121.86 454.73,-126.78"/>
<text text-anchor="middle" x="229.85" y="-206.58" font-family="Times New Roman,serif" font-size="14.00"> All except [&quot;] </text>
</g>
<!-- q0&#45;&gt;q0 -->
<g id="edge2" class="edge">
<title>q0&#45;&gt;q0</title>
<path fill="none" stroke="black" d="M53.74,-221.35C52.66,-231.29 54.99,-240.25 60.73,-240.25 64.58,-240.25 66.89,-236.21 67.67,-230.54"/>
<polygon fill="black" stroke="black" points="70.65,-230.86 67.71,-222.35 64.7,-230.84 70.65,-230.86"/>
<text text-anchor="middle" x="60.73" y="-242.7" font-family="Times New Roman,serif" font-size="14.00"> Space </text>
</g>
<!-- q1 -->
<g id="node4" class="node">
<title>q1</title>
<ellipse fill="none" stroke="black" cx="150.48" cy="-86.13" rx="20.13" ry="20.13"/>
<text text-anchor="middle" x="150.48" y="-80.7" font-family="Times New Roman,serif" font-size="14.00">q1</text>
</g>
<!-- q0&#45;&gt;q1 -->
<g id="edge3" class="edge">
<title>q0&#45;&gt;q1</title>
<path fill="none" stroke="black" d="M73.56,-186.48C88.61,-166.59 114.71,-132.09 132.04,-109.18"/>
<polygon fill="black" stroke="black" points="134.8,-111.47 137.55,-102.89 130.05,-107.88 134.8,-111.47"/>
<text text-anchor="middle" x="105.6" y="-152.58" font-family="Times New Roman,serif" font-size="14.00"> &quot; </text>
</g>
<!-- q1&#45;&gt;q1 -->
<g id="edge6" class="edge">
<title>q1&#45;&gt;q1</title>
<path fill="none" stroke="black" d="M146.37,-106.13C145.87,-115.76 147.24,-124.25 150.48,-124.25 152.61,-124.25 153.93,-120.59 154.44,-115.36"/>
<polygon fill="black" stroke="black" points="157.43,-115.68 154.58,-107.13 151.48,-115.59 157.43,-115.68"/>
<text text-anchor="middle" x="150.48" y="-126.7" font-family="Times New Roman,serif" font-size="14.00"> Space </text>
</g>
<!-- q1&#45;&gt;q1 -->
<g id="edge9" class="edge">
<title>q1&#45;&gt;q1</title>
<path fill="none" stroke="black" d="M143.62,-105.39C140.17,-123.13 142.46,-142.25 150.48,-142.25 157.12,-142.25 159.83,-129.14 158.61,-114.56"/>
<polygon fill="black" stroke="black" points="161.45,-114.41 157.34,-106.39 155.56,-115.22 161.45,-114.41"/>
<text text-anchor="middle" x="150.48" y="-144.7" font-family="Times New Roman,serif" font-size="14.00"> All except [&quot;] </text>
</g>
<!-- q2 -->
<g id="node5" class="node">
<title>q2</title>
<ellipse fill="none" stroke="black" cx="313.23" cy="-120.13" rx="20.13" ry="20.13"/>
<text text-anchor="middle" x="313.23" y="-114.7" font-family="Times New Roman,serif" font-size="14.00">q2</text>
</g>
<!-- q1&#45;&gt;q2 -->
<g id="edge8" class="edge">
<title>q1&#45;&gt;q2</title>
<path fill="none" stroke="black" d="M158.54,-104.84C164.46,-117.59 174.26,-133.5 188.6,-141.13 220.98,-158.33 235.45,-149.7 271.1,-141.13 276.6,-139.8 282.18,-137.62 287.39,-135.15"/>
<polygon fill="black" stroke="black" points="288.56,-137.37 294.73,-130.81 285.81,-132.1 288.56,-137.37"/>
<text text-anchor="middle" x="229.85" y="-152.58" font-family="Times New Roman,serif" font-size="14.00"> \ </text>
</g>
<!-- q3 -->
<g id="node6" class="node">
<title>q3</title>
<ellipse fill="none" stroke="black" cx="313.23" cy="-24.13" rx="20.13" ry="20.13"/>
<ellipse fill="none" stroke="black" cx="313.23" cy="-24.13" rx="24.13" ry="24.13"/>
<text text-anchor="middle" x="313.23" y="-18.7" font-family="Times New Roman,serif" font-size="14.00">q3</text>
</g>
<!-- q1&#45;&gt;q3 -->
<g id="edge7" class="edge">
<title>q1&#45;&gt;q3</title>
<path fill="none" stroke="black" d="M157.35,-66.71C162.88,-52.2 172.72,-33.38 188.6,-24.38 216.54,-8.54 254.05,-11.13 280.4,-16.02"/>
<polygon fill="black" stroke="black" points="279.65,-19.1 288.57,-17.89 280.84,-13.27 279.65,-19.1"/>
<text text-anchor="middle" x="229.85" y="-27.58" font-family="Times New Roman,serif" font-size="14.00"> &quot; </text>
</g>
<!-- q2&#45;&gt;q1 -->
<g id="edge11" class="edge">
<title>q2&#45;&gt;q1</title>
<path fill="none" stroke="black" d="M293.06,-118.9C268.47,-116.97 224.71,-112.34 188.6,-102.13 184.99,-101.1 181.25,-99.81 177.62,-98.4"/>
<polygon fill="black" stroke="black" points="178.87,-95.28 169.88,-94.75 176.58,-100.77 178.87,-95.28"/>
<text text-anchor="middle" x="229.85" y="-119.58" font-family="Times New Roman,serif" font-size="14.00"> &quot; </text>
</g>
<!-- q2&#45;&gt;q1 -->
<g id="edge12" class="edge">
<title>q2&#45;&gt;q1</title>
<path fill="none" stroke="black" d="M300.34,-104.63C292.95,-96.31 282.66,-86.88 271.1,-82.38 241.36,-70.8 204.24,-74.46 179.31,-79.25"/>
<polygon fill="black" stroke="black" points="178.78,-76.53 171.07,-81.18 180,-82.35 178.78,-76.53"/>
<text text-anchor="middle" x="229.85" y="-85.58" font-family="Times New Roman,serif" font-size="14.00"> \ </text>
</g>
<!-- q2&#45;&gt;q1 -->
<g id="edge13" class="edge">
<title>q2&#45;&gt;q1</title>
<path fill="none" stroke="black" d="M299.37,-105.22C295.85,-100.82 292.16,-95.9 289.1,-91.13 279.51,-76.15 286.25,-64.71 271.1,-55.38 239.89,-36.14 223.1,-42.95 188.6,-55.38 182.47,-57.59 176.63,-61.3 171.47,-65.4"/>
<polygon fill="black" stroke="black" points="169.88,-63.71 165.45,-71.55 173.8,-68.19 169.88,-63.71"/>
<text text-anchor="middle" x="229.85" y="-58.58" font-family="Times New Roman,serif" font-size="14.00"> All except [&quot;] </text>
</g>
<!-- q2&#45;&gt;q2 -->
<g id="edge10" class="edge">
<title>q2&#45;&gt;q2</title>
<path fill="none" stroke="black" d="M299.45,-135.39C294.63,-146.78 299.23,-158.25 313.23,-158.25 323.52,-158.25 328.73,-152.06 328.86,-144.27"/>
<polygon fill="black" stroke="black" points="331.66,-144.11 327.02,-136.39 325.83,-145.32 331.66,-144.11"/>
<text text-anchor="middle" x="313.23" y="-160.7" font-family="Times New Roman,serif" font-size="14.00"> Space </text>
</g>
<!-- q3&#45;&gt;Dead -->
<g id="edge15" class="edge">
<title>q3&#45;&gt;Dead</title>
<path fill="none" stroke="black" d="M324.78,-45.77C331.77,-57.8 342.11,-71.96 355.36,-80.13 382.64,-96.95 418.99,-101.94 446.25,-103.01"/>
<polygon fill="black" stroke="black" points="445.92,-106 454.49,-103.24 446.06,-100.06 445.92,-106"/>
<text text-anchor="middle" x="396.61" y="-105.58" font-family="Times New Roman,serif" font-size="14.00"> &quot; </text>
</g>
<!-- q3&#45;&gt;Dead -->
<g id="edge16" class="edge">
<title>q3&#45;&gt;Dead</title>
<path fill="none" stroke="black" d="M335.76,-33.8C342,-36.39 348.88,-39.05 355.36,-41.13 391.21,-52.63 404.41,-43.08 437.86,-60.38 444.97,-64.06 451.88,-69.05 458.11,-74.31"/>
<polygon fill="black" stroke="black" points="455.76,-76.09 464.08,-79.54 459.72,-71.66 455.76,-76.09"/>
<text text-anchor="middle" x="396.61" y="-63.58" font-family="Times New Roman,serif" font-size="14.00"> \ </text>
</g>
<!-- q3&#45;&gt;Dead -->
<g id="edge17" class="edge">
<title>q3&#45;&gt;Dead</title>
<path fill="none" stroke="black" d="M336.46,-17.13C362.6,-10.29 406.4,-3.31 437.86,-21.38 454.28,-30.81 465.51,-48.41 472.88,-64.78"/>
<polygon fill="black" stroke="black" points="470.37,-65.48 476.39,-72.18 475.86,-63.19 470.37,-65.48"/>
<text text-anchor="middle" x="396.61" y="-24.58" font-family="Times New Roman,serif" font-size="14.00"> All except [&quot;] </text>
</g>
<!-- q3&#45;&gt;q3 -->
<g id="edge14" class="edge">
<title>q3&#45;&gt;q3</title>
<path fill="none" stroke="black" d="M298.57,-43.63C295.32,-55.28 300.2,-66.25 313.23,-66.25 322.59,-66.25 327.75,-60.59 328.7,-53.07"/>
<polygon fill="black" stroke="black" points="331.58,-52.84 327.89,-44.63 325.65,-53.35 331.58,-52.84"/>
<text text-anchor="middle" x="313.23" y="-68.7" font-family="Times New Roman,serif" font-size="14.00"> Space </text>
</g>
</g>
</svg>
